<?xml version="1.0" encoding="UTF-8"?>
<svg id="Layer_1" data-name="Layer 1" xmlns="http://www.w3.org/2000/svg" xmlns:xlink="http://www.w3.org/1999/xlink" viewBox="0 0 94 91">
  <defs>
    <style>
      .cls-1 {
        fill: url(#linear-gradient);
      }

      .cls-2 {
        fill: #fff;
      }
    </style>
    <linearGradient id="linear-gradient" x1="34.27" y1="33.4" x2="61.11" y2="58.91" gradientUnits="userSpaceOnUse">
      <stop offset="0" stop-color="#5582ea"/>
      <stop offset=".5" stop-color="#5d70b4"/>
      <stop offset="1" stop-color="#694fa0"/>
    </linearGradient>
  </defs>
  <rect class="cls-1" x="27.69" y="26.81" width="38.62" height="37.38"/>
  <g>
    <path class="cls-2" d="M41.17,40.7c-1.77,0-3.2,2.45-3.2,5.48s1.43,5.48,3.2,5.48,3.2-2.45,3.2-5.48-1.43-5.48-3.2-5.48Z"/>
    <path class="cls-2" d="M52.52,40.7c-1.77,0-3.2,2.45-3.2,5.48s1.43,5.48,3.2,5.48,3.2-2.45,3.2-5.48-1.43-5.48-3.2-5.48Z"/>
    <path class="cls-2" d="M66.31,18.25H27.69c-4.37,0-7.94,3.57-7.94,7.94v38.62c0,4.37,3.57,7.94,7.94,7.94h38.62c4.37,0,7.94-3.57,7.94-7.94V26.19c0-4.37-3.57-7.94-7.94-7.94ZM63.6,41.88l-1.27,6.15c-.59,2.85-1.78,5.55-3.5,7.9l-2.42,3.31c-.83,1.14-2.15,1.81-3.56,1.81h-12.64c-1.38,0-2.68-.69-3.45-1.84l-2.22-3.3c-1.67-2.49-2.87-5.27-3.52-8.2l-.83-5.3-.17-2.1h-1.37l1.67-1.32c4.64-3.66,9.67-6.79,15-9.34l1.49-.71,3.17,1.57c4.37,2.16,8.5,4.77,12.34,7.77l2.6,2.03h-1.38l.05,1.57Z"/>
  </g>
</svg>