<?xml version="1.0" encoding="UTF-8"?>
<svg id="Layer_1" data-name="Layer 1" xmlns="http://www.w3.org/2000/svg" viewBox="0 0 94 91">
  <defs>
    <style>
      .cls-1 {
        fill: #fff;
      }
    </style>
  </defs>
  <path class="cls-1" d="M46.91,22.37s.08.06.09.09c.04.06.05.13.09.19v.09l-.38.19v.09c-.19-.04-.25.02-.38.09-.03.02-.06.07-.09.09-.11.08-.14.24-.19.28-.06.05-.04.03-.09.09-.11.13-.12.03-.28.28-.06.09-.13.19-.19.28-.26.11-.07.07-.14.1-.51.23-.41.36-.9.37v.47s-.29-.05-.29-.05l.29.14v.09c-.4.3-.78.45-.43-.19l-.34.56-.37-.08-.19.66-.19-.19-.05.47-.23-.27-.48.42.28.24-.38.28-.47-.19-.43.66-.14-.19-.38.85-.24-.19c-.3.28-.3.64-.33.66-.05.03-.5-.15-.85.38l.19.28h-.66s-.19.57-.19.57l-.14-.19-.14.43c-.38-.07-.62,0-.48.42l-.37-.05c.19.33-.11.67-.15.14l-.05.38-.47-.09-.38.43.28-.14c.04.14-.1.28-.09.38,0,.03,0,.06,0,.09l-.14-.19c-.36.12-.45.26-.05.38-.17,0-.43.09-.57.1-.01,0,.04-.2-.05-.19l.05.19c-.09.07,0,.18,0,.19-.01.1-.07.13-.09.19l-.38-.19.04.29-.8.85c-.24-.35-.64.31-.95.33l.28.24c-.43-.04-1.49.47-1.33,1.04-.03,0-.07,0-.09,0-.29.09-.27.25-.52.38l-.14-.19v.57s-.38-.28-.38-.28l-.09.24c.01.06.23-.05.28.05.01.02-.01.08,0,.09l-.24.28-.29-.38-.14.38.28-.09-.85.33.28.14c-.45.06-.26.36-.28.38-.08.05-.37-.15-.47-.09-.01,0,.11.18.1.19-.06.03-.29-.03-.39.05-.04.03-.59,1.15-.32.24l-.38.29.24.23c-.53.21-.9.18-.76.62l-.48.05c-.26.31.23-.03.19.1-.15.59-1.18.52-1.42,1.23.02.07.18.12.19.14.01.03.23-.07.19.09l-1.14.71.19.14c-.41.13-1.2.59-1.14.95l-.47-.09c.24.36-.46.68-.76.57,0-.35-.01-.7,0-1.04l.85-.38-.19-.19c.89.16.62-.57,1.23-.57l-.19-.28.76-.19v-.38s.76-.24.76-.24c-.78.09-.18-.16.05-.52l.29.37.71-1.04c.16-.04.08.19.09.19,0,0,.05.2.09,0l.08-.43.48-.05c-.24-.24.27-.45.47-.66.08-.09.23.06.19-.47l.33.19.81-.67-.19-.28c.24.11.71-.19.86-.32.27-.23-.26-.51.51-.33l.23-.25-.47.14.68-.38c.4-.23.12-.52.17-.57.02-.02.22.04.46-.11.02-.01-.09-.17-.08-.17.06-.03.6.36.67-.38l.38.19-.28-.47.47.19h.09l-.19-.38h.57s.29-.76.29-.76l.57.09-.09-.47.38.09-.09-.28c.54.26.62-.53.66-.57.03-.02.32-.01.48-.14.1-.09.08-.31.1-.33.11-.09.96-.47,1.05-.52.1-.07-.09-.45.37-.24l-.06-.35.63-.27-.19-.24.95-.19-.19-.24c.19.03.26-.22.28-.24.27-.22.54-.21.57-.23.21-.16-.09-.62.47-.33l-.05-.38.33.09.29-.66.14.28.05-.47.38.19.24-.46c.34.35.07-.03.38-.3.25-.22.5-.07.52-.09.02-.02-.04-.26.02-.36.14-.21.29.03.07-.4h.71s.33-.66.33-.66l.19.38c.14-.57.07-.82.76-.76l-.28-.38.61.1,1.29-1.33-.09.28.28-.09-.19-.19.28-.09ZM46.01,23.22v.09l.05-.05-.05-.05ZM44.01,24.84v.09l.05-.05-.05-.05ZM43.35,25.31v.09l.05-.05-.05-.05ZM43.06,25.59v.09l.05-.05-.05-.05ZM42.78,26.07v.09l.05-.05-.05-.05ZM40.69,27.77v.09l.05-.05-.05-.05ZM38.89,29.29v.09l.05-.05-.05-.05ZM38.55,29.57c-.08-.21-.16-.22-.28-.05l.28.05ZM36.99,30.81v.09l.05-.05-.05-.05ZM36.42,31.19v.09l.05-.05-.05-.05ZM35.94,31.76v.09l.05-.05-.05-.05ZM32.24,34.88v.09l.05-.05-.05-.05ZM31.48,35.17v.09l.05-.05-.05-.05ZM32.05,35.17v.09l.05-.05-.05-.05ZM27.83,38.77h-.19v.09h.19v-.09ZM26.55,39.43v.09l.05-.05-.05-.05Z"/>
  <path class="cls-1" d="M37.8,27.3c.09-.04.16-.13.24-.19l-.24.61-.09-.13v.28c-.06-.03-.35-.12-.38-.09l.09.38c-.17-.09-.8.35-1.11.61-.36.29-.37.6-.4.62-.16.12-1.14.58-1.4.79-.1.08-.31.41-.42.51-.03.02-.13-.1-.17-.07-.04.04.13.21.05.28-.18.15-.28-.05-.33,0-.02.02.11.16-.04.29-.2.18-.48-.14-.44.47l-.09-.19c-.38.17-.48.73-.86,1.04-.05.04-.24-.12-.27-.09-.02.02.03.24,0,.27-.08.07-.42-.03-.47.01-.03.02.03.36,0,.38-.05.04-.89.36-.93.4-.32.25.23.24-.01.41l-.62.13.05.38c-.59-.23-.83.53-.97.64-.26.21-.66.34-.93.59,0,0,.18-.1.19-.09l-.14.28c-.08.01-.06-.17-.05-.19-.21.2-.06.3-.24.47l-.23-.19-.3.65c-.26-.11-.88.56-1.22.91l-2.18,1.75c0-.06-.01-.13,0-.19l.09-.28c.08-.37.14-.52.28-.85l.09-.19s-.01-.07,0-.09l.57-.1-.18-.47h.75s-.19-.48-.19-.48l.56-.11v-.36s.25.28.25.28l.23-.52.34.05.14-.66.66.1-.09-.57.51.09.16-.37.14.19.05-.47c2.91-2.2,6.22-4.85,9.3-6.73l.19-.19s.07.01.09,0ZM27.5,34.98l.05.14.05.04v-.09l-.1-.09ZM27.07,35.45h-.19v.09h.19v-.09ZM26.97,35.64h-.19v.09h.19v-.09ZM26.45,35.93v.09l.05-.05-.05-.05ZM25.98,36.59v.09l.05-.05-.05-.05ZM25.69,36.69v.09l.05-.05-.05-.05ZM25.08,37.16h-.28s0,.19,0,.19l.28-.19ZM25.31,37.73v.09l.05-.05-.05-.05Z"/>
  <path class="cls-1" d="M70.26,58.87c0,.35.01.7,0,1.04l-1.19.67.05.37-.24.28-.29-.28-.76,1.13-.09-.19-.9.47.38.28h-.47s0,.46,0,.46h-.75s.19.25.19.25l-.85.81c-.56-.38-.35.31-.76.33l.19.14h-.47s.28.28.28.28c-.27.12-1.27.3-.76.57-.73-.23-.27.75-.85.29l-.1.28c.22-.09.44.08.57.1h-1.71l-.09-.38.33.09c.14-.5.57-.36.61-.38.02-.02,0-.24.11-.32.43-.35.35-.41.38-.43.13-.11.65.01.67-.66l.28.19c-.16-.21.69-.78.85-.66l-.28-.28c.1-.02.27.11.33.08.7-.33.89-.91,1.57-1.22l-.19-.19,1.42-1.14.14.19c.24-.14.55-.67.71-.81.06-.05.26.08.29.05.03-.03-.14-.24-.09-.28.03-.03.15.1.17.08.12-.12.36-.56.45-.64.16-.15.41,0,.42,0,.04-.03-.13-.62.48-.57ZM67.93,61.43v.09l.05-.05-.05-.05ZM65.7,63.52h-.19v.09h.19v-.09Z"/>
  <path class="cls-1" d="M70.26,59.91c-.01.31.02.64,0,.95-.04.34-.89.15-.95.85l-.14-.19c-.19.51-.94.58-.62.95l-.39-.05-1.75,1.76-.09-.28-.52.52.19.23-.43-.09c-.18.68-1.58.88-1.56,1.6-.18-.01-.4.02-.57,0-.13-.02-.35-.18-.57-.1l.1-.28c.58.46.13-.52.85-.29-.51-.27.49-.45.76-.57l-.28-.28h.47s-.19-.14-.19-.14c.41-.02.2-.71.76-.33l.85-.81-.19-.23h.75s0-.48,0-.48h.47s-.38-.28-.38-.28l.9-.47.09.19.76-1.13.29.28.24-.28-.05-.37,1.19-.67ZM67.93,62.57v.09l.05-.05-.05-.05ZM65.65,64.37v.09l.05-.05-.05-.05Z"/>
  <path class="cls-1" d="M33.33,62.95c-.53-.52-.71.35-.76.38-.06.04-.35-.14-.42-.09-.17.12-.05.26-.15.33-.08.06-.25-.09-.29-.05-.03.03.12.25.01.34-.47.39-.93.76-1.42.92l.07.35c-.76-.21-.44.25-.67.47-.51-.25-.12.13-.18.19l-.29.28v-.33s-.37.29-.37.29l.28.14c-.58-.04-.94-.05-1.52-.19l4.46-3.98c.22.02.45-.06.66.05.23.27.36.61.57.9Z"/>
  <path class="cls-1" d="M70.26,44.74c-.19.32-.89.37-1.04.48-.01,0,.13.23.06.28-.26.21-.42.08-.43.1-.04.03.11.26.09.28-.28.23-.84.47-1.04.48.39.68-.15.17-.19.19-.02,0,0,.27-.09.33-.55.34-.53.2-.91.91l-.62.18c0-.47,0-.95,0-1.42.1.47.83-.69.95-.79.34-.28.41.17.52-.44l.33.09.1-.57.33.19c-.01-.3,1-.42.24-.75l.85-.1-.38-.19c.77-.11.66-.42,1.23-.85.01.54,0,1.08,0,1.61ZM68.5,44.93v.09l.05-.05-.05-.05Z"/>
  <path class="cls-1" d="M50.23,22.94l-1.23.67.19.19-.43.09-.14.48-.33-.19.14.28-.33-.19.14.24-.76.57.19.24c-.1-.05-.17-.08-.28-.09l-.28-.09c-.02.17.18.08.28.09-.02.43-1.16.37-.85.85-.63.22-4.42,3.16-5.32,3.79-.29-.68.68-.49.57-.95l.19.19-.09-.28c.55.21.44-.23.6-.35.2-.15.52-.14.54-.16.31-.25,1.02-1.2,1.34-1.46.02-.01.33.06.44-.04,0-.63.32-.24.35-.27.14-.12.11-.81.38-.47l1.26-1.23c.61.04.69-.69,1.45-.85l-.19-.28,1.23-.48c-.51-.14.41-.55.38-.66.22.13.36.21.57.38ZM46.96,25.31v.09l.05-.05-.05-.05ZM44.39,27.11v.09l.05-.05-.05-.05ZM41.64,29.29v.09l.05-.05-.05-.05Z"/>
  <path class="cls-1" d="M69.97,38.3c.08.25.14.5.19.76-.37-.26-.17.26-.19.28-.04.04-.25-.13-.28-.09-.03.03-.48.74-.51.77-.03.03-.68.22-.81.37l-.1.47-.28-.19-.28.33.19.14-.47-.09c.17.79-.91.67-1.33,1.23,0-.47-.02-.95,0-1.42l.29.14.26-.52h.5s-.28-.28-.28-.28l.28.05c-.1-.46.43-.54.76-.33l-.19-.28.48-.05c-.18-.1.43-.96.42-.52.48-.15.85-1.26,1.38-.76ZM67.27,40.1v.09l.05-.05-.05-.05Z"/>
  <path class="cls-1" d="M63.71,32.7c.34.17.42.32.66.47-.69.26-.53.63-.57.66s-.23-.14-.28-.09c-.03.02.1.15,0,.24-.03.03-.39-.03-.48.05-.01.01.14.22.01.33-.33.29-.73.75-.95.94-.13.11-.85.2-.86.71-.29-.22-.59-.4-.85-.66-.07-.07-.33-.24-.28-.28l.38-.29c.31.42.35-.62,1.04-.57-.26-.42.14-.18.47-.38l-.19-.28c.17.11.92-.66.81-.19l.14-.47.28.1v-.38s.38-.09.38-.09c.03,0,.07,0,.09,0l.19.19ZM63.19,32.8v.09l.05-.05-.05-.05Z"/>
  <path class="cls-1" d="M49.28,22.37l-.58.66c-.29-.21-.26.13-.47.38l-.28-.28c0,.27-.29.89-.47.47l-.43.85c.16-.5-.36-.27-.42-.18l.09.37-.38-.19-.38.85c-.3-.56-.18.08-.48.28-.13.09-.06-.28-.19-.19-.18.13-.9.69-.48.66l-1.62,1.42h-.46c.41-.18.36-.59.47-.75.38-.54.79-.99,1.33-1.42.28-.23.73-.16.47-.47l.85-.66v-.09c.25-.08.62-.05.57-.28-.01-.05-.05-.08-.09-.09.04-.15.13-.03.19-.09.14-.08.27-.17.38-.28.05-.05.07.11.19-.19h.09c.07.09.06.03.09,0l.09-.09s.14-.14.19-.19l.09-.09s.05-.16.09-.19l.09-.09s.07.01.09,0c0,0,.09.14.17.09l.4-.46c.36.11.4.09.76.28ZM44.2,26.35v.09l.05-.05-.05-.05Z"/>
  <path class="cls-1" d="M44.53,25.31s-.08-.01-.09,0v-.09l.09.09Z"/>
  <path class="cls-1" d="M27.92,42.28c-.46.57-.86.63-1.19,1.42l-.19-.28-1.43,1.33-.09-.19c-.11.43-.73,1.14-1.19.76l-.1.47c0-.44,0-.89,0-1.33.39.54.26-.12.29-.14.17-.13.85-.38,1.03-.54.11-.09,0-.35,0-.37.04-.03.73-.35.85-.38-.15-.54.93-.6,1.05-1.23l.23.19.71-.85c-.02.38.01.76,0,1.14ZM27.59,41.61v.09l.05-.05-.05-.05ZM24.36,45.03v.09l.05-.05-.05-.05Z"/>
  <path class="cls-1" d="M70.26,56.78c0,.38,0,.76,0,1.14-.95.31-1.68,1.47-2.62,2.02-.02.01.07.16.06.16l-.47-.09.09.47-.28-.28.09.57c-.64-.04-.77.44-1.23.76.3-.48.18-1.07.19-1.61l1.04-.48c-.24-.33.16-.16.24-.22.21-.17.59-.66.71-.77.07-.06.27-.03.29-.05.03-.03-.17-.56.47-.38l-.09-.28c.69.14.74-.9,1.52-.95Z"/>
  <path class="cls-1" d="M52.03,24.27c.26.19.51.39.76.57.24.37-.47.28-.64.41-.12.09-.21.61-.46.73l-.14-.24c0,.53-1.2.87-.85,1.09-.55-.18-.53.22-.71.57l-.14-.19-.19.38c-.35-.24-.75-.57-1.04-.76l.95-.28-.19-.28c.47.02.31-.86.95-.38l.1-.71.57.05c-.25-.14.88-.71,0-.42l1.04-.52ZM52.65,24.93v.09l.05-.05-.05-.05ZM50.85,26.26v.09l.05-.05-.05-.05Z"/>
  <path class="cls-1" d="M65.42,33.94c-.85.11-1.4.95-1.99,1.46-.14.12-.53.17-.64.27-.12.11-.02.31-.04.34-.11.11-.65.25-.65.58-.27-.2-.59-.36-.85-.57.01-.51.74-.6.86-.71.22-.19.63-.65.95-.94.13-.12-.03-.32-.01-.33.09-.08.44-.02.48-.05.1-.09-.03-.22,0-.24.05-.04.24.12.28.09s-.12-.4.57-.66c.37.24.69.51,1.04.76Z"/>
  <path class="cls-1" d="M57.06,27.87l-.56.49v.37s-.2-.28-.2-.28l-.19.57-.28-.28c.16.73-.65.65-.76.76-.02.02.29.49-.28.28l-.05.38-.3-.06-.41.73c-.26-.18-.5-.38-.76-.57l-.09-.47h.47s-.19-.19-.19-.19l1.33-.76-.09-.33.57.05.1-.38-.38.05c.12-.03.66-.4.76-.33.12.09-.5.16-.14.38l.62-.95c.28.19.57.37.85.57Z"/>
  <path class="cls-1" d="M70.26,49.29c0,.28,0,.57,0,.85-.29.41-.6.38-.67.43-.3.23-1.01,1.13-1.04.8-.22.27-.16.6-.48.38l.09.47-.38-.24-.09.43c-.25.3-.43-.12-.48.57-.36-.47-.35.17-.38.19-.05.03-.29-.21-.5.21l-.26-.12c0-.16,0-.32,0-.47l.1-.47c.83.12,1.06-1.24,1.99-1.14-.54-.07-.02-.52.24-.66.02-.01.17.22.24.19.02-.01-.02-.26,0-.28.02-.01.3.08.37,0,.02-.02-.14-.31.1-.51.18-.15.82-.37,1.14-.62ZM69.17,50.05v.09l.05-.05-.05-.05ZM69.36,50.05v.09l.05-.05-.05-.05Z"/>
  <path class="cls-1" d="M70.26,49.29c-.31.25-.96.47-1.14.62-.24.2-.08.49-.1.51-.07.08-.36,0-.37,0-.03.02.01.27,0,.28-.06.04-.22-.2-.24-.19-.26.15-.78.6-.24.66-.94-.1-1.16,1.26-1.99,1.14l-.1.47c0-.38,0-.76,0-1.14l.29-.38c.46.27.31-.29.51-.48.16-.15.92-.15.82-.75l.28.38.86-.85-.1-.38.24.19.43-.75c.22.41.47-.23.85-.29,0,.32,0,.63,0,.95ZM69.74,48.82v.09l.05-.05-.05-.05ZM69.45,48.91v.09l.05-.05-.05-.05ZM66.98,51v.09l.05-.05-.05-.05ZM66.94,51.29h-.19v.09h.19v-.09Z"/>
  <path class="cls-1" d="M51.37,23.79c.23.16.44.32.66.47l-1.04.52c.88-.28-.25.28,0,.42l-.57-.05-.1.71c-.63-.48-.47.4-.95.38l.19.28-.95.28c-.17-.11-.47-.27-.66-.38.09-.37.46-.43.71-.6.19-.12.3-.11.4-.19.32-.23.25-.7.59-.45l.14-.57c.28.55.18-.06.23-.12.46-.46.77-.78,1.33-.74ZM49.9,24.93v.09l.05-.05-.05-.05ZM50.18,25.5v.09l.05-.05-.05-.05Z"/>
  <path class="cls-1" d="M27.92,59.15c.01.38-.03.76,0,1.14-.59-.06-.63.94-.95.47.11.47-.3.21-.38.28-.02.02-.08.45-.1.47-.21.18-1.05.56-1.32.81l.19.14-.38-.19-.29.76h-.47c-.1-.25-.12-.32-.19-.57l.95-.62-.09-.33.57-.19-.19-.19,2.66-1.99ZM27.21,59.72v.09l.05-.05-.05-.05Z"/>
  <path class="cls-1" d="M27.92,58.21c0,.32,0,.63,0,.95l-2.66,1.99.19.19-.57.19.09.33-.95.62c-.11-.38-.13-.43-.19-.85l.19-.47c.51.43.64-.46.86-.65.02-.02.19.11.27.04.24-.2.45-.59.48-.62.12-.09.07.29.19.19.03-.02-.06-.17.06-.28.02-.02.4.24.32-.38l.19.19,1.52-1.42Z"/>
  <path class="cls-1" d="M65.42,33.94c.23.16.44.31.66.47l-.57.1-.19.57-.38-.09v.09c-.39.24-.29-.07-.38,0-.04.03.11.24.08.27-.18.17-.68.63-.93.49l.09.38-.47-.09-.38.62c.65,0-.09.08-.29.24-.16-.12-.36-.22-.57-.38,0-.34.53-.48.65-.58.03-.02-.08-.23.04-.34.11-.1.5-.15.64-.27.6-.51,1.14-1.35,1.99-1.46Z"/>
  <path class="cls-1" d="M64.94,35.07v-.09c.16.02.11.03,0,.09Z"/>
  <path class="cls-1" d="M62.28,31.66c.18.13.38.25.57.38l-.57.09.09.43c-.61-.22-.71.78-1.33.57l.28.19-.53.23.06.38h-.66s.18.57.18.57l-.33-.19-.24.66c-.22-.16-.44-.32-.66-.47l.02-.55c.33-.07.62-.13.89-.4.08-.08-.09-.33-.06-.38.02-.02.61-.1.64-.12.27-.22.39-.7.42-.72.02-.01.29.08.41-.02.26-.24.31-.69.82-.65ZM59.29,34.13v.09l.05-.05-.05-.05Z"/>
  <path class="cls-1" d="M57.82,28.44c.13.09.25.19.38.28v.47s-.19-.28-.19-.28l-.19.57-.47-.19v.43s-.95.42-.95.42l.09.28c-.2-.44-.4.19-.48.47l-.19-.28-.29.85-.24-.1-.24.19c-.17-.12-.32-.27-.47-.38l3.23-2.75Z"/>
  <path class="cls-1" d="M53.93,25.59l.09.19-.43.76-.29-.28.1.28-1.28.76.19.14-.57.71c-.06-.38-.62.25-.76.47-.13-.05-.25-.2-.38-.28l-.19-.38.47.09-.09-.38h.47s-.09-.38-.09-.38l.38-.05c-.8-.15.41-.33.57-.43.02-.01-.11-.26.21-.46.07-.05.22.11.26.08.06-.04-.21-.41.47-.19l-.09-.47.24.19.52-.48c.05.04.13.06.19.09ZM53.74,25.97v-.19h-.09v.19h.09ZM53.5,26.07v.09l.05-.05-.05-.05ZM53.69,26.07v.09l.05-.05-.05-.05Z"/>
  <path class="cls-1" d="M56.21,27.3l-.62.95c-.35-.21.27-.29.14-.38-.1-.07-.64.3-.76.33l.38-.05-.1.38-.57-.05.09.33-1.33.76.19.19h-.47s.09.48.09.48c-.13-.09-.25-.19-.38-.28l.19-.85.64-.21-.07-.36.38.19.1-.66v.57s.38-.19.38-.19c-.34-.27.6-.57.95-.95l-.19-.28.28.19.29-.38c.16.11.27.21.38.28Z"/>
  <path class="cls-1" d="M42.64,55.27v.09c-.13,0-.25,0-.38,0-.82,0-1.65,0-2.47,0-.63,0-1.27,0-1.9,0-.76.01-1.52-.02-2.28,0-.03,0-.06,0-.09,0-.09,0-.19,0-.28,0-1.73.05-2.99.1-4.65.47l.1.19h-.95c.19-.21.29-.38.58-.51,1.25-.57,10.25-.25,12.33-.25Z"/>
  <path class="cls-1" d="M34.66,64.84c.34.42.92.85,1.23,1.33-.85,0-1.71,0-2.56,0-.17-.45.44-.63.48-.66.01-.01-.15-.1.12-.34.03-.03.14.06.26-.04.07-.06.18-.06,0-.09.04-.02.07-.2.19-.19h.29ZM33.76,65.6v.09l.05-.05-.05-.05Z"/>
  <path class="cls-1" d="M34.19,65.13c-.17-.03-.1-.03,0-.09v.09Z"/>
  <path class="cls-1" d="M47.19,21.9l.48.04.05.33.05-.38c.09.01.2-.02.28,0l-.09.57s-.07-.01-.09,0c-.07.05-.08.09-.09.09-.04.03-.05.16-.09.19-.03.03-.06.06-.09.09-.05.05-.14.15-.19.19-.03.03-.06.07-.09.09s-.02.09-.09,0c0-.08-.11-.25-.09-.28,0-.02.21.05.19-.05-.05-.27-.15-.09-.19-.14-.04-.06-.06-.13-.09-.19l.29-.05c-.03-.1-.2-.03-.29-.05-.23-.3.07-.15.09-.19v-.09s.03-.14.09-.19ZM47.48,22.09s-.2-.04-.19.05l.24.24c.02-.05-.04-.27-.05-.28Z"/>
  <path class="cls-1" d="M47.1,22.84c-.05.22,0,.27,0,.28-.12.3-.14.14-.19.19-.01-.24.09-.44-.19-.38l.38-.19s0,.07,0,.09Z"/>
  <path class="cls-1" d="M51.37,55.27c-.62.18-1.35.09-1.99.09-.03,0-.06,0-.09,0s-.06,0-.09,0c-.19,0-.38,0-.57,0-.03,0-.06,0-.09,0-.76,0-1.52,0-2.28,0-.32,0-.63,0-.95,0v-.09h6.07Z"/>
  <path class="cls-1" d="M28.21,34.22l-.05.47-.14-.19-.16.37-.51-.09.09.57-.66-.1-.14.66-.34-.05-.23.52-.24-.28v.36s-.57.11-.57.11l.19.47h-.75s.18.47.18.47l-.57.1c.88-1.67,2.47-2.34,3.89-3.41Z"/>
  <path class="cls-1" d="M45.29,55.27v.09c-.22,0-.44,0-.66,0-.13,0-.25,0-.38,0-.03,0-.06,0-.09,0-.47,0-.95,0-1.42,0-.03,0-.06,0-.09,0v-.09h2.66Z"/>
  <path class="cls-1" d="M48.52,22.09l-.4.46c-.08.06-.17-.09-.17-.09l.09-.57c.23.04.33.15.47.19Z"/>
  <path class="cls-1" d="M47.76,21.9l-.05.38-.05-.33-.48-.04v-.09c.26,0,.38.07.57.09Z"/>
  <path class="cls-1" d="M60.2,30.14c.21.16.49.25.66.47-.07-.03-.37-.12-.47-.19-.07.28-.69,1.11-1.04.85l.09.38-.43-.19.05.28-.95.85-.19-.19.09.38h-.47s.09.28.09.28l-.14-.19-.05.38c-.22-.16-.44-.32-.66-.47-.03-.3.43-.38.65-.58.04-.03-.11-.24-.08-.27.04-.03.91-.34,1.02-.43.13-.1.36-.53.41-.57.04-.03.62-.24.76-.47l-.19-.14.85-.19Z"/>
  <path class="cls-1" d="M50.7,23.32s-.19.17-.19-.19c.09.03.15.1.19.19Z"/>
  <path class="cls-1" d="M51.18,46.92c-.06.04-.12.08-.19.09l.19-.09Z"/>
  <path class="cls-1" d="M46.62,35.83s-.04.08-.19.09l.19-.09Z"/>
  <path class="cls-1" d="M62.85,32.04c.2.14.45.23.57.47l-.38.09v.38s-.28-.1-.28-.1l-.14.47c.12-.47-.63.3-.81.19l.19.28c-.33.2-.73-.04-.47.38-.69-.05-.73.99-1.04.57l-.38.29s.21.21.28.28c-.22-.08-.38-.25-.57-.38l.24-.66.33.19-.18-.56h.66s-.06-.39-.06-.39l.53-.23-.28-.19c.62.22.72-.78,1.33-.57l-.09-.43.57-.09ZM60.34,34.03v.09l.05-.05-.05-.05Z"/>
  <path class="cls-1" d="M66.18,65.98s-.04.08-.19.09l.19-.09Z"/>
  <path class="cls-1" d="M66.56,65.88c-.04.09-.11.08-.19.09.04-.09.11-.08.19-.09Z"/>
  <path class="cls-1" d="M48.81,48.16c-.05.06-.12.08-.19.09l.19-.09Z"/>
  <path class="cls-1" d="M70.26,41.05v-.19c0,.06,0,.13,0,.19Z"/>
  <path class="cls-1" d="M48.43,48.25l-.19.09s.05-.07.19-.09Z"/>
  <path class="cls-1" d="M24.22,37.92c.03-.07.06-.12.09-.19l-.09.19Z"/>
  <path class="cls-1" d="M64.28,38.2c-.1-.07-.15-.16-.19-.19l.19.19Z"/>
  <path class="cls-1" d="M69.31,37.06c.31.4.51.75.66,1.23-.53-.5-.9.61-1.38.76,0-.44-.61.42-.42.52l-.48.05.19.28c-.33-.21-.86-.13-.76.33l-.28-.05.28.28h-.5s-.26.52-.26.52l-.29-.14c.01-.36-.05-.81,0-1.14.01-.09-.01-.19,0-.28.81.04.62-.74,1.23-.71l.1-.43.28.28-.05-.37.48-.38.33.19v-.47c.51.23.17-.12.19-.15.05-.05.66.09.19-.23l.47-.1ZM67.98,39.34c-.22-.17-.21.18-.05.19.08,0,.05-.18.05-.19Z"/>
  <path class="cls-1" d="M63.61,37.73c-.1-.07-.15-.16-.19-.19l.19.19Z"/>
  <path class="cls-1" d="M63.71,32.7l-.19-.19c.14.03.15.17.19.19Z"/>
  <path class="cls-1" d="M68.07,35.83l.76.66c-.1-.06-.47-.21-.57-.19v.47s-1,.37-1,.37l-.14.67-.24-.38-.52,1.04c-.33-.34-.39.04-.66.28l-.05-.38-.33.57c-.19-.15-.38-.33-.57-.47.44-.37-.08-.59.62-.57l.1-.57.24.19.81-.95c.06.43.34-.21.67-.19l-.14-.05,1.04-.52ZM66.41,37.06v.09l.05-.05-.05-.05Z"/>
  <path class="cls-1" d="M31.63,36.02s.02-.07,0-.09.01-.07,0-.09c.24.1.06.12,0,.19Z"/>
  <path class="cls-1" d="M36.56,31.76c.06.31.19.33.38.09.26-.05.15.09.19.19h-.05l-.05.05.05.05.05-.09s.07.06.09.09c-.3.26-.45.17-.47.19-.04.03.1.23.09.24-.26.21-.4.43-.49.5-.03.02-.37,0-.68.21-.12.08.06.36-.54.29l.28.14-.66.24.14.28-.9.29-.09.43-.29-.05.38.19c-1.18,1.36-4.82,2.98-5.78,4.23-.33.43-.24.51-.29.99l-1.14.52c-.27.32.29-.06.29.1,0,.05-.73.53-.85.52l-.05.47c-.05-.48-1.09.34-1.28.52-.01.01.15.27.09.34-.03.03-.52.04-.62.38l-.09-.28-.52.66c0-.38,0-.76,0-1.14.29.11,1-.2.76-.57l.47.09c-.06-.36.73-.82,1.14-.95l-.19-.14,1.14-.71c.04-.17-.18-.07-.19-.09l1.04-.48-.19-.38.28.09c-.2-.64.53-.39.65-.49.06-.05.09-.33.25-.47.1-.08.23.02.24.01.03-.03-.03-.35,0-.38.18-.15,1.01-.27.9-.76l.33.19.25-.67h.6c0-.3.21-.46.38-.66l.05.19.71-.47.1-.66s.07,0,.09,0c.03-.01.33.15.52-.19l.14.19c.05-.23.81-1.18,1.04-1.38.12-.1.97-.05.76-.61l.28.19c-.05-.53.24-.43.38-.76.03-.06.08-.09.09-.19l.85-.14c-.08-.08-.1-.23-.09-.33,0-.03,0-.06,0-.09Z"/>
  <path class="cls-1" d="M66.75,34.88l-.19-.19c.1.07.15.16.19.19Z"/>
  <path class="cls-1" d="M34.47,34.79l.28-.28-.28.28Z"/>
  <path class="cls-1" d="M61.53,31.09c.27.18.5.38.76.57-.51-.04-.55.42-.82.65-.11.1-.39.01-.41.02-.03.03-.15.5-.42.72-.03.02-.62.09-.64.12-.04.05.14.3.06.38-.26.27-.56.33-.89.4l-.02.55c-.35-.25-.7-.51-1.04-.76.35-.05.58-.7.76-.29-.08-.44.61-.56.76-1.14l.47.19-.14-.47.52.09c-.14-.34.05-.48.38-.38l-.14-.28.81-.38Z"/>
  <path class="cls-1" d="M34.85,34.5l.19-.19s-.09.12-.19.19Z"/>
  <path class="cls-1" d="M35.14,34.32l.28-.28c-.06.04-.14.18-.28.28Z"/>
  <path class="cls-1" d="M35.52,34.03l.19-.19c-.03.11-.11.13-.19.19Z"/>
  <path class="cls-1" d="M23.75,51.28l.29-.05-.29.14s0-.06,0-.09Z"/>
  <path class="cls-1" d="M36.18,33.56l.28-.28-.28.28Z"/>
  <path class="cls-1" d="M55.17,26.54c.24.16.44.32.66.47l-.29.38-.28-.19.19.28c-.35.38-1.29.68-.95.95l-.38.19v-.57s-.1.66-.1.66l-.38-.19.07.36-.64.21-.19.85c-.4-.29-.83-.55-1.23-.85l.65-.11.11-.69c.37.19,1.08-.5,1.04-.9.43-.04.39-.22.57.19l.29-.38-.28-.28c.29.01.42-.06.66-.19,0,0-.03.2.05.19l.24-.24c-.05-.01-.27.04-.28.05.11-.06.18-.29.47-.19ZM53.88,28.44v.09l.05-.05-.05-.05Z"/>
  <path class="cls-1" d="M59.25,29.48l-.66.51-.28-.04.19.28-1.14.48.28.28c-.06-.16-1,.25-1.04.28-.04.03.11.27.09.28-.05.05-.84.06-.66.66-.31-.22-.64-.44-.95-.66l.24-.19.24.1.29-.85.19.28c.07-.28.28-.91.48-.47l-.09-.28.95-.42v-.43s.47.19.47.19l.19-.57.19.28v-.47c.35.25.7.51,1.05.76ZM56.87,30.15c-.14-.03-.2.04-.28.14.09.02.33-.04.28-.14ZM56.45,30.52v.09l.05-.05-.05-.05Z"/>
  <path class="cls-1" d="M51.08,28.63s.07-.29.19-.14l-.09.24s-.06-.06-.09-.09Z"/>
  <path class="cls-1" d="M37.51,27.49s.06-.13.19-.19l-.19.19Z"/>
  <path class="cls-1" d="M45.48,22.09c-.38.54-.68.02-.81.85l-.33-.19-.1.38-1.42,1.04.19.09c-.88.14-1.07,1.23-1.99,1.23l.19.38-.38-.09v.38s-.14-.28-.14-.28l-.38.57-.33-.19-.12.64-.46.02.05.38-.33-.09.19.28-.76.1.05.48-.53-.1-1.19,1.42c-.12-.22-.27-.08-.33-.09-.12-.02-.4.03-.38-.09.72-.07.43-.33.56-.43.11-.08,1.11-.56,1.14-.61-.06-.04-.17-.28-.19-.28v-.28s.09.13.09.13l.24-.61c-.07.06-.15.15-.24.19,2.27-1.41,5.18-4.47,7.69-5.21Z"/>
  <path class="cls-1" d="M54.12,25.78h-.09l-.09-.19c.08.05.15.1.19.19Z"/>
  <path class="cls-1" d="M34.19,65.13v-.09c.18.04.07.04,0,.09Z"/>
  <path class="cls-1" d="M34.66,64.84h-.29c-.12-.01-.15.16-.19.19-.1.07-.17.07,0,.09-.12.1-.23,0-.26.04-.27.25-.11.33-.12.34-.03.04-.65.22-.48.66-.47,0-.95,0-1.42,0l-.09-.28c.23-.15.53.2.28-.28.11,0,.91-.35.95-.38.02-.01-.04-.2.06-.29.07-.07.41-.07.42-.09.02-.03-.37-.51.28-.28-.08-.79.16.16.29-.47.19.24.38.53.57.76Z"/>
  <path class="cls-1" d="M70.07,62.19l-1.33.67c.17.29-.22.76-.38.38-.09.79-.95.17-.77,1.02l-.32-.08-.85,1.04-.33-.19.1.38-1.14.48c-.03.23.63.19.76.19-.55.15-1.24.13-1.8.09-.01-.73,1.38-.93,1.56-1.6l.43.09-.19-.23.52-.52.09.28,1.75-1.76.39.05c-.32-.37.43-.44.62-.95l.14.19c.06-.7.91-.52.95-.85-.04.57-.06.77-.19,1.33Z"/>
  <path class="cls-1" d="M49.66,22.56s-.06-.07-.09-.09l.09.09Z"/>
  <path class="cls-1" d="M33.81,31.57h-.09s.06-.06.09-.09c-.01.02.01.07,0,.09Z"/>
  <path class="cls-1" d="M46.81,21.8c-.32-.03-.98.96-.81.29-.06,0-.42.72-.56.82-.44.3-.32-.13-.44-.06-.05.03-.07.92-.76.57l-.1.57c-.31-.45-.13.05-.19.1l-.38-.1c.03.45-.66.7-1.04,1.05l.19.28-.52-.09v.48s-.38-.1-.38-.1c-.87.83-1.73,1.73-2.61,2.23l.19.24-.86.19v.47c-.23,0-.81.31-.96.44-.03.03-.36.65-.42.7-.23.2.05-.26-.19-.19-.53.17-.37.51-.43.56s-.33-.02-.37,0c-.05.04-.13.7-.76.57v.43c-.19.08-.21-.49-.48.42l-.23-.19c-.17.73-.49.44-.52.47-.07.06.18.44-.28.19v.47s-.52,0-.52,0l-.05.38c-.1-.62-.51.14-.38.38l-.31-.1c-.16.59-.27.22-.35.29-.02.01.07.17.05.19-.08.07-.53.47-.57.47-.09,0,.23-.37-.14-.28.07.35-.14.23-.29.38l.28.05-.28.14v-.19c-.27.27-.63.92-.87,1.13-.09.08-.33-.11-.36-.08-.04.03.11.28.09.28-.36.24-.26-.17-.38-.09-.07.04-.69,1.18-1.09.86l.14.37c-.93-.13-.43.59-1.14.52v.52c-.6.13-1.58.84-2.08,1.25-.05.04.13.2.04.27l-1.95,1.43c.01-.28-.02-.57,0-.85l.81-.38-.14-.19c.6.18.63-.47.76-.57.12-.1.07.28.19.19.11-.08.2-.76.66-.47l.1-.47.28.09-.1-.38c.39.15,2.23-1.54,1.09-.67-.01-.51.57-.33.62-.38.01-.01-.08-.31,0-.38.13-.1.67-.06.76-.57l.14.19c.33-.85.89-.74,1.38-1.28l-.19-.09c.49-.13.92-.43,1.3-.73.02-.01-.02-.29.14-.43.2-.18.35.4.65-.5h.57s-.09-.38-.09-.38l.47.09.33-.76-.05.33c.2-.16.25-.42.38-.62h.38s.38-.66.38-.66l.28.19-.09-.38c.08.04.64-.08.66-.1.04-.03-.14-.6.66-.47l-.19-.28.66-.48v-.09c.06,0,.21-.13.33.09l1.19-1.42.53.1-.05-.48.76-.1-.19-.28.33.09-.05-.38.46-.02.12-.64.33.19.38-.57.14.28v-.38s.38.09.38.09l-.19-.38c.92,0,1.11-1.1,1.99-1.23l-.19-.09,1.42-1.04.1-.38.33.19c.13-.83.42-.31.81-.85.54-.16.72-.26,1.33-.28ZM45.58,22.28s-.08.28-.05.28c.18-.07.17-.37.05-.28ZM42.3,25.02v.09l.05-.05-.05-.05ZM42.02,25.5v.09l.05-.05-.05-.05ZM40.5,26.54v.09l.05-.05-.05-.05ZM24.74,39.81v.09l.05-.05-.05-.05Z"/>
  <path class="cls-1" d="M47,22.37c.09.01.26-.05.29.05l-.29.05s-.08-.06-.09-.09c.03,0,.06,0,.09,0Z"/>
  <rect class="cls-1" x="28.78" y="37.07" width=".09" height=".19"/>
  <rect class="cls-1" x="31.06" y="34.79" width=".19" height=".09"/>
  <path class="cls-1" d="M28.11,38.11h.09c-.05.2-.09,0-.09,0Z"/>
  <polygon class="cls-1" points="25.88 39.15 25.93 39.2 25.88 39.24 25.88 39.15"/>
  <polygon class="cls-1" points="29.25 36.97 29.16 36.92 29.21 36.87 29.25 36.92 29.25 36.97"/>
  <polygon class="cls-1" points="39.6 28.25 39.5 28.2 39.55 28.15 39.6 28.2 39.6 28.25"/>
  <path class="cls-1" d="M47.1,22.18s-.01-.07,0-.09v.09Z"/>
  <path class="cls-1" d="M26.88,40s-.16-.07-.19-.14c.24-.72,1.27-.64,1.42-1.23.03-.13-.46.21-.19-.1l.48-.05c-.14-.44.22-.41.76-.62l-.24-.23.38-.29c-.26.91.28-.21.32-.24.1-.08.33-.02.39-.05,0,0-.11-.18-.1-.19.1-.06.4.14.47.09.03-.02-.16-.32.28-.38l-.28-.14.85-.33-.28.09.14-.38.29.38.24-.28s-.02.08,0,.09c-.17.2-.39.36-.38.66h-.6s-.25.66-.25.66l-.33-.19c.11.49-.72.61-.9.76-.03.03.03.35,0,.38,0,0-.14-.09-.24-.01-.16.14-.19.42-.25.47-.12.1-.85-.15-.65.49l-.28-.09.19.38-1.04.48ZM28.64,38.39v.09l.05-.05-.05-.05ZM26.98,39.72c.14.03.2-.04.28-.14-.09-.02-.33.04-.28.14Z"/>
  <path class="cls-1" d="M32.48,35.07l-.1.66-.71.47-.05-.19c.06-.07.24-.09,0-.19-.05-.09-.27.02-.28-.05l.09-.24.38.28v-.57s.14.19.14.19c.25-.13.24-.29.52-.38Z"/>
  <path class="cls-1" d="M37.42,31.38h.09c-.05.2-.09,0-.09,0Z"/>
  <path class="cls-1" d="M36.56,31.76c0-.1.14-.24.09-.38l-.28.14.38-.43.47.09.05-.38c.03.53.34.18.15-.14l.37.05c-.15-.41.1-.5.48-.42l.14-.43.14.19.19-.57h.66s-.19-.28-.19-.28c.35-.53.8-.35.85-.38.04-.02.03-.38.33-.66l.24.19.38-.85.14.19.43-.66.47.19.38-.28-.28-.24.48-.42.23.27.05-.47.19.19.19-.66.37.08.34-.56c-.35.64.02.49.43.19.02-.01.09.01.09,0-.54.44-.95.88-1.33,1.42-.45-.16-.35.36-.38.38-.02.02-.52-.04-.57,0-.03.02.04.31-.02.36-.15.12-.59.21-.66.26-.07.05-.56.66-.67.75-.19.16-.47.02-.62.14-.03.02-.27.56-.33.62-.4.38-.72.3-.9.9l-.09-.19-.33.47-.19-.28-.19.57-.38.47c-.15.03-.54-.19-.47.19-.02.01-.06-.01-.09,0-.13.04-.1.08-.09.19-.06-.06-.09-.2-.14-.19-.19.08-.04.27-.05.28-.06.08-.08.18-.09.19-.19.24-.31.22-.38-.09Z"/>
  <path class="cls-1" d="M46.72,23.03l.09.24c-.12.09-.19.23-.28.33-.06.06-.15-.06-.19.09-.02.06.03.11.09.09.05.24-.32.2-.57.28-.03,0-.07,0-.09,0,.07-.1.2-.07.19-.14l-.28-.05c.17-.25.17-.15.28-.28h.19c.1-.03.22-.1.28-.19.07-.1.14-.12.09-.28l-.19.09v-.09c.13-.07.19-.14.38-.09Z"/>
  <path class="cls-1" d="M45.48,24.17c.08-.03.2-.06.28-.09-.03.04.03.11.09.09l-.85.66c.26.31-.19.24-.47.47l-.09-.09-.29-.14.28.05v-.47c.5-.01.39-.15.9-.37.07-.03-.12.01.14-.1ZM45.44,24.46v.09l.05-.05-.05-.05Z"/>
  <polygon class="cls-1" points="37.51 31.38 37.56 31.28 37.61 31.33 37.56 31.38 37.51 31.38"/>
  <path class="cls-1" d="M46.34,23.22l.09.19-.28.19s-.06,0-.09,0v-.09s.08-.2.19-.28h.09Z"/>
  <path class="cls-1" d="M35.8,32.13c.14,0,.4-.1.57-.1-.4-.11-.31-.25.05-.38l.14.19c0,.11.02.25.09.33l-.85.14s-.09-.12,0-.19l-.05-.19c.09-.01.03.19.05.19Z"/>
  <path class="cls-1" d="M46.72,22.94c.28-.06.18.14.19.38-.11.11-.24.2-.38.28.09-.11.16-.25.28-.33l-.09-.24v-.09Z"/>
  <path class="cls-1" d="M45.86,24.17c-.06.02-.12-.06-.09-.09.03,0,.07,0,.09,0v.09Z"/>
  <path class="cls-1" d="M45.67,23.89l.28.05c0,.07-.12.04-.19.14-.09.03-.2.06-.28.09.06-.09.13-.19.19-.28Z"/>
  <path class="cls-1" d="M47.1,22.65c.04.05.14-.13.19.14.02.09-.18.03-.19.05,0-.03,0-.06,0-.09v-.09Z"/>
  <path class="cls-1" d="M47.19,23.13h-.09s-.05-.07,0-.28c-.01.03.1.2.09.28Z"/>
  <path class="cls-1" d="M47.19,21.8v.09c-.06.05-.06.15-.09.19-.01.02.01.07,0,.09-.02.04-.33-.11-.09.19-.03,0-.06,0-.09,0l-.28.09.19.19-.28.09.09-.28-1.29,1.33-.61-.1.28.38c-.69-.06-.62.19-.76.76l-.19-.38-.33.66h-.71c.21.44.07.19-.07.4-.07.1,0,.34-.02.36-.02.02-.27-.13-.52.09-.3.26-.04.65-.38.3l-.24.46-.38-.19-.05.47-.14-.28-.29.66-.33-.09.05.38c-.56-.28-.26.17-.47.33-.03.02-.31.01-.57.23v-.05l-.05-.05-.05.05.09.05s-.09.26-.28.24l.19.24-.95.19.19.24-.63.27.06.35c-.46-.21-.27.16-.37.24-.08.06-.94.44-1.05.52-.02.01,0,.24-.1.33-.16.13-.45.12-.48.14-.04.04-.12.83-.66.57l.09.28-.38-.09.09.47-.57-.09-.29.76h-.57s.19.38.19.38h-.09l-.47-.19.28.47-.38-.19c-.07.74-.6.35-.67.38,0,0,.1.16.08.17-.23.15-.44.09-.46.11-.05.05.23.34-.17.57l-.68.38.47-.14-.23.25c-.77-.18-.25.1-.51.33-.15.13-.63.43-.86.32l.19.28-.81.67-.33-.19c.04.54-.11.39-.19.47v-.05l-.05-.05-.05.05.09.05c-.2.21-.71.42-.47.66l-.48.05-.08.43h-.09s.06-.23-.09-.19l-.71,1.04-.29-.37c-.23.36-.83.61-.05.52l-.76.24v.38s-.76.19-.76.19l.19.28c-.62,0-.34.73-1.23.57l.19.19-.85.38c0-.19,0-.38,0-.57l1.95-1.43c.09-.06-.09-.23-.04-.27.5-.4,1.49-1.12,2.08-1.25v-.52c.71.07.21-.66,1.14-.52l-.14-.37c.4.32,1.03-.82,1.09-.86.12-.07.02.33.38.09.01,0-.13-.26-.09-.28.04-.03.27.16.36.08.24-.21.6-.86.87-1.13v.19s.28-.14.28-.14l-.28-.05c.14-.15.36-.03.29-.38.37-.09.05.28.14.28.04,0,.49-.4.57-.47.03-.02-.06-.18-.05-.19.09-.07.19.31.35-.29l.31.1c-.14-.23.28-1,.38-.38l.05-.38h.52s0-.47,0-.47c.46.25.22-.13.28-.19.03-.03.35.26.52-.47l.23.19c.27-.91.29-.34.48-.42v-.43c.63.13.71-.53.76-.57.04-.03.31.04.37,0s-.09-.39.43-.56c.24-.07-.04.39.19.19.06-.05.39-.68.42-.7.15-.13.73-.43.95-.44v-.47s.86-.19.86-.19l-.19-.24c.88-.49,1.74-1.4,2.61-2.23l.38.1v-.48s.53.09.53.09l-.19-.28c.39-.35,1.08-.6,1.04-1.05l.38.1c.06-.05-.12-.55.19-.1l.1-.57c.69.35.71-.54.76-.57.12-.07,0,.36.44.06.14-.1.5-.83.56-.82-.18.67.49-.32.81-.29.12,0,.25,0,.38,0ZM31.25,34.79h-.19v.09h.19v-.09ZM28.87,37.25v-.19h-.09v.19h.09ZM25.88,39.15v.09l.05-.05-.05-.05Z"/>
  <path class="cls-1" d="M38.55,29.57l-.28-.05c.13-.18.2-.16.28.05Z"/>
  <path class="cls-1" d="M46.43,23.41c-.06.09-.18.16-.28.19l.28-.19Z"/>
  <path class="cls-1" d="M46.05,23.6s.07,0,.09,0h-.09Z"/>
  <path class="cls-1" d="M46.05,23.51v.09h-.09c.05-.06.04-.04.09-.09Z"/>
  <path class="cls-1" d="M46.34,23.22h-.09s.06-.08.09-.09v.09Z"/>
  <path class="cls-1" d="M46.43,23.41l-.09-.19.19-.09c.04.16-.02.19-.09.28Z"/>
  <path class="cls-1" d="M32.57,35.07c-.16-.57.9-1.08,1.33-1.04l-.28-.24c.3-.02.7-.69.95-.33l.8-.85-.04-.29.38.19c-.15.32-.43.23-.38.76l-.28-.19c.2.56-.64.51-.76.61-.23.19-.99,1.15-1.04,1.38l-.14-.19c-.19.34-.49.18-.52.19Z"/>
  <rect class="cls-1" x="27.64" y="38.77" width=".19" height=".09"/>
  <polygon class="cls-1" points="26.55 39.43 26.59 39.48 26.55 39.53 26.55 39.43"/>
  <polygon class="cls-1" points="32.05 35.17 32.1 35.22 32.05 35.26 32.05 35.17"/>
  <polygon class="cls-1" points="31.48 35.17 31.53 35.22 31.48 35.26 31.48 35.17"/>
  <polygon class="cls-1" points="32.24 34.88 32.29 34.93 32.24 34.98 32.24 34.88"/>
  <polygon class="cls-1" points="35.94 31.76 35.99 31.8 35.94 31.85 35.94 31.76"/>
  <polygon class="cls-1" points="36.42 31.19 36.47 31.23 36.42 31.28 36.42 31.19"/>
  <polygon class="cls-1" points="36.99 30.81 37.04 30.86 36.99 30.9 36.99 30.81"/>
  <polygon class="cls-1" points="38.89 29.29 38.93 29.34 38.89 29.39 38.89 29.29"/>
  <polygon class="cls-1" points="40.69 27.77 40.74 27.82 40.69 27.87 40.69 27.77"/>
  <polygon class="cls-1" points="42.78 26.07 42.83 26.12 42.78 26.16 42.78 26.07"/>
  <polygon class="cls-1" points="43.06 25.59 43.11 25.64 43.06 25.69 43.06 25.59"/>
  <polygon class="cls-1" points="43.35 25.31 43.4 25.36 43.35 25.4 43.35 25.31"/>
  <polygon class="cls-1" points="44.01 24.84 44.06 24.88 44.01 24.93 44.01 24.84"/>
  <polygon class="cls-1" points="46.01 23.22 46.05 23.27 46.01 23.32 46.01 23.22"/>
  <path class="cls-1" d="M36.56,29.39l-.66.48.19.28c-.81-.13-.62.44-.66.47-.03.02-.58.14-.66.1l.09.38-.28-.19-.38.66h-.38s-.01-.07,0-.09c.47-.67.3-.25.57-.47v.05l.05.05.05-.05-.09-.05s.33-.48.38-.57l.14.19.57-.85,1.09-.38ZM35.75,29.95v.09l.05-.05-.05-.05Z"/>
  <path class="cls-1" d="M33.81,31.57c-.13.2-.18.46-.38.62l.05-.33-.33.76-.47-.09.09.38h-.57s-.15-.16-.09-.28l.52-.09v-.38c.48.42.14-.08.24-.15.21-.15.57-.15.85-.43h.09Z"/>
  <path class="cls-1" d="M45.58,22.28c.12-.09.13.21-.05.28-.03,0,.04-.27.05-.28Z"/>
  <polygon class="cls-1" points="24.74 39.81 24.79 39.86 24.74 39.91 24.74 39.81"/>
  <polygon class="cls-1" points="40.5 26.54 40.55 26.59 40.5 26.64 40.5 26.54"/>
  <polygon class="cls-1" points="42.02 25.5 42.07 25.55 42.02 25.59 42.02 25.5"/>
  <polygon class="cls-1" points="42.3 25.02 42.35 25.07 42.3 25.12 42.3 25.02"/>
  <polygon class="cls-1" points="25.08 37.16 24.79 37.35 24.79 37.16 25.08 37.16"/>
  <rect class="cls-1" x="26.79" y="35.64" width=".19" height=".09"/>
  <rect class="cls-1" x="26.88" y="35.45" width=".19" height=".09"/>
  <path class="cls-1" d="M37.7,27.87s.13.24.19.28c-.04.05-1.03.53-1.14.61-.13.1.16.36-.56.43-.02.12.26.07.38.09v.09l-1.09.38-.57.85-.14-.19c-.05.09-.35.54-.38.57-.27.23-.1-.2-.57.47-.03.03-.06.06-.09.09-.29.28-.65.28-.85.43-.09.07.24.56-.24.15v.38s-.52.09-.52.09c-.05.12.1.27.09.28-.3.9-.44.32-.65.5-.16.14-.12.41-.14.43-.39.3-.82.59-1.3.73l.19.09c-.49.54-1.05.43-1.38,1.28l-.14-.19c-.09.51-.63.46-.76.57-.09.07.01.37,0,.38-.05.04-.63-.13-.62.38,1.14-.87-.7.82-1.09.67l.1.38-.28-.09-.1.47c-.46-.28-.55.39-.66.47-.12.09-.07-.28-.19-.19-.13.1-.16.75-.76.57l.14.19-.81.38c.02-.26.06-.43.09-.66l2.18-1.75c.34-.35.96-1.02,1.22-.91l.3-.65.23.19c.18-.17.03-.27.24-.47-.01.02-.03.2.05.19l.14-.28s-.18.09-.19.09c.27-.25.67-.39.93-.59.14-.11.37-.87.97-.64l-.05-.38.62-.13c.25-.17-.31-.17.01-.41.04-.03.89-.36.93-.4.03-.02-.03-.36,0-.38.05-.04.39.06.47-.01.04-.03-.02-.26,0-.27.03-.03.22.13.27.09.38-.3.48-.87.86-1.04l.09.19c-.04-.61.23-.29.44-.47.15-.13.02-.27.04-.29.05-.05.16.15.33,0,.08-.07-.09-.25-.05-.28.03-.03.14.09.17.07.12-.1.32-.43.42-.51.26-.22,1.25-.67,1.4-.79.03-.03.04-.33.4-.62.32-.26.95-.7,1.11-.61l-.09-.38s.32.06.38.09ZM33.57,31.38v.09l.05-.05-.05-.05ZM33.38,31.57v.09l.05-.05-.05-.05ZM31.72,32.8h-.19v.09h.19v-.09ZM31.29,33.46v.09l.05-.05-.05-.05ZM30.63,34.13l-.14.14.04.04.1-.09v-.09ZM25.88,38.11v.09l.05-.05-.05-.05ZM24.65,39.15v.09l.05-.05-.05-.05Z"/>
  <polygon class="cls-1" points="25.31 37.73 25.36 37.78 25.31 37.82 25.31 37.73"/>
  <polygon class="cls-1" points="25.69 36.69 25.74 36.73 25.69 36.78 25.69 36.69"/>
  <polygon class="cls-1" points="25.98 36.59 26.03 36.64 25.98 36.69 25.98 36.59"/>
  <polygon class="cls-1" points="26.45 35.93 26.5 35.97 26.45 36.02 26.45 35.93"/>
  <polygon class="cls-1" points="27.5 34.98 27.59 35.07 27.59 35.17 27.54 35.12 27.5 34.98"/>
  <path class="cls-1" d="M49.28,55.36s.06,0,.09,0h-.09Z"/>
  <path class="cls-1" d="M43.21,26.73c-.12.17-.07.57-.47.76l.09.18c-.63.49-1.4.83-1.98,1.34-.05.04-.08.46-.1.47-.71.61-1.96,1.35-2.85,2.18-.52-.24-.27.17-.28.19-.08.12-.15.23-.21.36-.03.03-.17-.09-.17-.08-.02-.04-.08-.07-.09-.09-.04-.1.07-.24-.19-.19.01-.01.03-.11.09-.19l.38.09c.02-.12-.12-.12-.19-.19,0-.11-.03-.15.09-.19l.57-.19c.23-.04.67.14.28-.28l.38-.14-.28-.05.19-.57.19.28.33-.47.09.19c.18-.6.5-.53.9-.9.06-.06.3-.59.33-.62.15-.12.42.02.62-.14.11-.09.59-.7.67-.75.06-.05.5-.14.66-.26.06-.05,0-.34.02-.36.05-.04.54.01.57,0,.03-.02-.07-.54.38-.38Z"/>
  <path class="cls-1" d="M37.89,31.66c-.08.08-.2.12-.28.19.01-.02-.23-.43.28-.19Z"/>
  <path class="cls-1" d="M27.92,40.29c-.03.27.01.57,0,.85l-.71.85-.23-.19c-.12.63-1.2.7-1.05,1.23-.13.03-.82.35-.85.38-.01.01.1.28,0,.37-.19.16-.86.41-1.03.54-.03.02.1.68-.29.14,0-.32,0-.63,0-.95l.52-.66.09.28c.1-.33.59-.35.62-.38.06-.06-.1-.32-.09-.34.18-.18,1.22-.99,1.28-.52l.05-.47c.12,0,.85-.47.85-.52,0-.15-.55.23-.29-.1l1.14-.52Z"/>
  <polygon class="cls-1" points="37.13 32.04 37.08 32.13 37.04 32.09 37.08 32.04 37.13 32.04"/>
  <rect class="cls-1" x="31.53" y="32.8" width=".19" height=".09"/>
  <polygon class="cls-1" points="25.88 38.11 25.93 38.15 25.88 38.2 25.88 38.11"/>
  <polygon class="cls-1" points="24.65 39.15 24.7 39.2 24.65 39.24 24.65 39.15"/>
  <polygon class="cls-1" points="30.63 34.13 30.63 34.22 30.53 34.31 30.49 34.27 30.63 34.13"/>
  <polygon class="cls-1" points="31.29 33.46 31.34 33.51 31.29 33.56 31.29 33.46"/>
  <polygon class="cls-1" points="33.38 31.57 33.43 31.61 33.38 31.66 33.38 31.57"/>
  <polygon class="cls-1" points="33.57 31.38 33.62 31.42 33.57 31.47 33.57 31.38"/>
  <rect class="cls-1" x="65.51" y="63.52" width=".19" height=".09"/>
  <path class="cls-1" d="M70.26,57.92c0,.32,0,.63,0,.95-.6-.05-.44.54-.48.57-.02.01-.26-.15-.42,0-.08.08-.32.52-.45.64-.02.02-.14-.11-.17-.08-.05.04.12.25.09.28-.03.03-.23-.1-.29-.05-.15.14-.47.67-.71.81l-.14-.19-1.42,1.14.19.19c-.68.31-.87.89-1.57,1.22-.06.03-.23-.1-.33-.08l.28.28c-.17-.11-1.02.45-.85.66l-.28-.19c-.02.68-.54.55-.67.66-.03.02.05.08-.38.43-.1.08-.08.3-.11.32-.03.02-.46-.12-.61.38l-.33-.09.09.38c-.47,0-.95,0-1.42,0,.1-.38.24-.62.66-.47v-.47s.38.19.38.19c-.4-.47.03-.18.1-.33l-.19-.14.33.19.05-.38h.57s-.19-.28-.19-.28c.75,0,.72-.67.76-.72.05-.06.5.18.28-.33.23.41.3-.12.56-.23.17-.08.32.22.24-.15l.24.19v-.66s.47.19.47.19c-.3-.7.44-.27.57-.76.48-.08.49-.29.76-.47.47-.32.6-.8,1.23-.76l-.09-.57.28.28-.09-.47.47.09s-.08-.15-.06-.16c.94-.55,1.67-1.7,2.62-2.02Z"/>
  <polygon class="cls-1" points="67.93 61.43 67.98 61.48 67.93 61.52 67.93 61.43"/>
  <path class="cls-1" d="M42.73,55.36c.04.27-.13.27-.09,0,.03,0,.06,0,.09,0Z"/>
  <path class="cls-1" d="M44.16,55.36s.06,0,.09,0h-.09Z"/>
  <path class="cls-1" d="M63.52,62c.01.3-.13.03-.42.28-.09.08.32.41-.42.2v.57s-.39-.09-.39-.09l-.04.56-.53-.08.19.24-.47-.24.09.47-.38-.19c.21.29-.58,1.08-.57.66.05.66-.55.47-1,.66l.05.57-.24-.28-.24.66-.28-.14.09.33c-.13,0-.55.04-.57-.05l3.13-4.08c.66-.12,1.33-.01,1.99-.05ZM62.9,62.19l-.14.14.04.04.1-.09v-.09Z"/>
  <polygon class="cls-1" points="62.52 63.99 62.57 64.04 62.52 64.08 62.52 63.99"/>
  <polygon class="cls-1" points="61.1 64.27 61.15 64.32 61.1 64.37 61.1 64.27"/>
  <polygon class="cls-1" points="67.93 62.57 67.98 62.61 67.93 62.66 67.93 62.57"/>
  <polygon class="cls-1" points="65.65 64.37 65.7 64.41 65.65 64.46 65.65 64.37"/>
  <path class="cls-1" d="M33.33,62.95c.1.13.17.32.28.47l-.65.21-.11.65-.33-.18-.38.46-.24-.18.19.38c-.98.46-1.09.7-1.61,1.42-.44-.02-.89.03-1.33,0l-.28-.14.37-.29v.33s.29-.28.29-.28c.06-.06-.33-.44.18-.19.23-.22-.09-.68.67-.47l-.07-.35c.49-.17.95-.53,1.42-.92.11-.09-.04-.31-.01-.34.04-.03.21.11.29.05.09-.07-.02-.21.15-.33.07-.05.36.13.42.09.05-.03.23-.9.76-.38Z"/>
  <path class="cls-1" d="M70.07,62.19c-.38,1.69-1.75,3.35-3.51,3.7-.08.01-.15,0-.19.09-.06.01-.13-.01-.19,0l-.19.09c-.06,0-.13,0-.19,0-.13,0-.79.04-.76-.19l1.14-.48-.1-.38.33.19.85-1.04.32.08c-.18-.86.68-.23.77-1.02.16.38.55-.09.38-.38l1.33-.67Z"/>
  <polygon class="cls-1" points="27.31 56.31 27.35 56.36 27.31 56.4 27.31 56.31"/>
  <path class="cls-1" d="M27.92,56.02l-2.09,1.23.1.24-.38-.05v.66s-.57-.19-.57-.19l.19.38c-.74-.04-.51.77-1.42.76,0-.31,0-.63,0-.95l.95-.38-.19-.24c.66-.49,1.38-.71,1.71-1.56l.14.19c.1-.41.56-.34.62-.38.01,0-.13-.23-.06-.29.22-.17.81-.57.91-.28l.1-.57c0,.47,0,.95,0,1.42Z"/>
  <polygon class="cls-1" points="25.69 58.87 25.74 58.92 25.69 58.96 25.69 58.87"/>
  <path class="cls-1" d="M70.26,41.9c.01.41,0,.82,0,1.23-.57.44-.46.75-1.23.85l.38.19-.85.1c.77.34-.25.45-.24.75l-.33-.19-.1.57-.33-.09c-.11.61-.18.16-.52.44-.13.1-.86,1.26-.95.79,0-.44,0-.89,0-1.33l.47-.1c-.23-.3.12-.17.28-.29.01-.01-.18-.27.06-.37.05-.02.29.13.36.09.34-.18.47-.68.69-.86.08-.06.67-.24.77-.32.52-.42.71-1.03,1.45-1.19l.1-.28ZM69.97,42.47v-.19h-.09v.19h.09ZM69.55,42.66v.09l.05-.05-.05-.05ZM68.07,43.98v-.19h-.09v.19h.09Z"/>
  <polygon class="cls-1" points="68.5 44.93 68.55 44.98 68.5 45.03 68.5 44.93"/>
  <path class="cls-1" d="M27.92,50.53c-.25.22-1.74.58-.95.62l-.23.43-.33-.19c.05.6-.5.47-.85.76l.09.38h-.52c-.03.66-.41.3-.76.85l-.24-.28.19.57-.24-.28-.33.47c0-.44,0-.89,0-1.33l1.33-.9.28-.48.1.24c-.17-.87.67-.7.95-.9.16-.11.08-.53.66-.43-.04-.37.47-.71.86-.85,0,.44,0,.89,0,1.33ZM25.41,52.14v.09l.05-.05-.05-.05Z"/>
  <polygon class="cls-1" points="25.22 50.91 25.27 50.95 25.22 51 25.22 50.91"/>
  <polygon class="cls-1" points="24.27 51.76 24.32 51.81 24.27 51.85 24.27 51.76"/>
  <path class="cls-1" d="M27.92,47.87c0,.44,0,.89,0,1.33-.4.14-.9.48-.86.85-.58-.1-.49.32-.66.43-.28.19-1.12.03-.95.9l-.1-.24-.28.48-1.33.9c0-.38,0-.76,0-1.14l.29-.14-.29.05c0-.06,0-.13,0-.19.66.02.58-.59.67-.66.04-.04.25.11.27.09.09-.09.42-.81.49-.84.63.42.03-.2.66.09v-.57s.95-.38.95-.38l-.05-.29h.33s-.19-.27-.19-.27h.66s-.19-.28-.19-.28l.57-.1ZM25.22,50.91v.09l.05-.05-.05-.05ZM24.27,51.76v.09l.05-.05-.05-.05Z"/>
  <path class="cls-1" d="M27.92,45.69c0,.25,0,.51,0,.76-.44-.28-.14.09-.33.29-.02.02-.52.32-.57.37-.07.07.27.27-.33.14l-.22.58-.21-.24-.57.38.14.37-.42.1.04.28-.28-.19-1.05.85.05.28-.43-.09c0-.22,0-.44,0-.66l.95-.57-.28-.28.95-.29-.28-.28c.59.23,1.05-.67,1.47-.95.08-.05,0,.27.14.19.03-.02-.06-.21.05-.27.03-.02.49-.02.62-.21l-.29-.14.57-.14-.28-.47.57.19ZM25.88,47.78v.09l.05-.05-.05-.05Z"/>
  <polygon class="cls-1" points="27.4 47.11 27.45 47.16 27.4 47.21 27.4 47.11"/>
  <polygon class="cls-1" points="27.21 47.21 27.26 47.26 27.21 47.3 27.21 47.21"/>
  <polygon class="cls-1" points="25.12 48.82 25.17 48.87 25.12 48.91 25.12 48.82"/>
  <polygon class="cls-1" points="26.07 48.82 26.12 48.87 26.07 48.91 26.07 48.82"/>
  <polygon class="cls-1" points="25.98 49.01 26.03 49.06 25.98 49.1 25.98 49.01"/>
  <polygon class="cls-1" points="25.41 49.48 25.46 49.53 25.41 49.58 25.41 49.48"/>
  <polygon class="cls-1" points="25.03 49.67 25.08 49.72 25.03 49.77 25.03 49.67"/>
  <polygon class="cls-1" points="66.98 56.12 67.03 56.17 66.98 56.21 66.98 56.12"/>
  <path class="cls-1" d="M70.26,47.21c-.07.4-1.1.65-1.14.71-.19.26.31.1.05.34-.19.17-.5.16-.53.19,0,0,.11.18.1.19-.28.23-1.07.62-1.42.91-.1.08-.01.21-.09.28-.17.15-.53-.15-.31.31l-.84.3c0-.41,0-.82,0-1.23l.38.19.14-.57.09.19.47-.48.15.2-.19-.38,1.14-.38-.28-.43c.47,0,.99-.91,1.37-.52l-.14-.28,1.04-.76c0,.41,0,.82,0,1.23Z"/>
  <polygon class="cls-1" points="66.7 48.63 66.75 48.68 66.7 48.72 66.7 48.63"/>
  <path class="cls-1" d="M27.92,43.51c0,.35,0,.7,0,1.04l-.47-.09-.38.38s.19-.04.19.05c0,.16-.36.17-.19-.05-.16.55-.28.06-.33.1-.36.27-.18.43-.52.76l.09-.47-.38.38.28.09c-.08.07-.27.2-.38.28-.04-.2-.08-.01-.09,0-.28.21-.07.3-.58.23l-.09.53-.24-.28c-.15.58-.64.81-1.09,1.32,0-.32,0-.63,0-.95h.38s-.1-.38-.1-.38l.93-.4c-.05-.79.5-.5.57-.56.35-.27,1.25-.88,1.15-1.22h.47c-.21-.4.44-.7.76-.76Z"/>
  <path class="cls-1" d="M25.74,45.98h.09s-.05.2-.09,0Z"/>
  <polygon class="cls-1" points="27.5 45.31 27.54 45.36 27.5 45.41 27.5 45.31"/>
  <polygon class="cls-1" points="27.69 45.31 27.73 45.36 27.69 45.41 27.69 45.31"/>
  <polygon class="cls-1" points="27.69 45.5 27.73 45.55 27.69 45.6 27.69 45.5"/>
  <polygon class="cls-1" points="26.93 46.07 26.97 46.12 26.93 46.17 26.93 46.07"/>
  <polygon class="cls-1" points="26.64 46.17 26.74 46.26 26.74 46.35 26.69 46.31 26.64 46.17"/>
  <polygon class="cls-1" points="26.45 46.26 26.5 46.31 26.45 46.35 26.45 46.26"/>
  <path class="cls-1" d="M70.26,55.17c0,.19,0,.38,0,.57l-1.05,1.04-.19-.28-.9,1.15c-.12.03-.72.27-.84.36-.32.25-.74.97-1.21,1.14,0-.28,0-.57,0-.85l.19-.38.57.09c-.16-.69.93-.52.76-1.04.57.32.71-.62.76-.66.03-.02.52-.02.67-.15.21-.18.73-1.34,1.23-.99Z"/>
  <polygon class="cls-1" points="68.31 55.27 68.36 55.31 68.31 55.36 68.31 55.27"/>
  <path class="cls-1" d="M66.08,55.74h.57c-.39-.75.97-.63.76-1.33l.47.19.09-.76c.84.03,1.5-.96,2.04-1.52l.24.09c0,.41,0,.82,0,1.23l-.57.33.19.24c-.84-.21-.75.73-1.47.95l-.09-.19c-.28.24-.05.91-.62.66.21.49-.12.13-.19.19-.02.01.1.15,0,.23-.14.12-.61.2-.67.25,0,0,.1.17.09.18-.15.12-.61.46-.85.48,0-.41,0-.82,0-1.23ZM66.98,56.12v.09l.05-.05-.05-.05Z"/>
  <path class="cls-1" d="M50.23,22.94c.07.06.16.09.19.19-.06,0-.13,0-.19,0l.19.14-.61.8c-.72-.32-.05.28-.81.19l.28.19-.47-.09.19.47-.38-.19v.34s-.57.27-.57.27l-.57.81c-.35-.12-.6-.12-.95,0-.31-.48.84-.42.85-.85-.11-.02-.31.07-.28-.09l.28.09c.11.02.18.04.28.09l-.19-.24.76-.57-.14-.24.33.19-.14-.28.33.19.14-.48.43-.09-.19-.19,1.23-.67Z"/>
  <path class="cls-1" d="M49.28,22.37c.07.04.21.03.28.09.03.03.06.07.09.09.03.11-.89.52-.38.66l-1.23.48.19.28c-.76.16-.83.89-1.45.85l-1.26,1.23c-.27-.33-.24.36-.38.47-.04.03-.36-.36-.35.27-.12.1-.43.02-.44.04-.32.26-1.03,1.21-1.34,1.46-.02.02-.34.01-.54.16-.16.12-.05.56-.6.35l.09.28-.19-.19c.11.46-.86.26-.57.95-1.59,1.12-3.06,2.42-4.75,3.41l-.28.28-.47.28-.19.19s-.07-.02-.09,0l-.28.28s-.07-.02-.09,0l-.19.19s-.07-.02-.09,0l-.28.28-.47.28-.38-.19.29.05.09-.43.9-.29-.14-.28.66-.24-.28-.14c.6.07.41-.21.54-.29.31-.2.65-.19.68-.21.09-.07.23-.29.49-.5.01,0-.13-.2-.09-.24.02-.02.17.07.47-.19,0,0,.14.11.17.08.05-.13.13-.25.21-.36.09-.07.2-.11.28-.19.88-.83,2.14-1.57,2.85-2.18.02-.02.05-.43.1-.47.58-.51,1.35-.85,1.98-1.34l-.09-.18h.46s1.62-1.42,1.62-1.42c-.43.03.3-.53.48-.66.12-.09.06.27.19.19.3-.2.17-.85.48-.28l.38-.85.38.19-.09-.37c.07-.09.59-.32.42.18l.43-.85c.18.42.47-.2.47-.47l.28.28c.2-.26.17-.6.47-.38l.58-.66Z"/>
  <polygon class="cls-1" points="41.64 29.29 41.69 29.34 41.64 29.39 41.64 29.29"/>
  <polygon class="cls-1" points="44.39 27.11 44.44 27.16 44.39 27.21 44.39 27.11"/>
  <polygon class="cls-1" points="46.96 25.31 47 25.36 46.96 25.4 46.96 25.31"/>
  <path class="cls-1" d="M27.92,51.19l-.1.38c-.55-.27-.41.22-.48.28-.03.03-.48-.15-.56.38l-.09-.19c-.15.37-.62.4-.09.57l-.43-.09c-.22.27-.55.72-.81.38v.57s-.29-.19-.29-.19l.09.28-.28-.05.09.33-.43-.09.05.38-.33-.09-.52.66c0-.28,0-.57,0-.85l.33-.47.24.28-.19-.57.24.28c.35-.56.73-.19.76-.85h.52s-.09-.39-.09-.39c.36-.29.9-.16.85-.76l.33.19.23-.43c-.79-.04.7-.39.95-.62,0,.22,0,.44,0,.66Z"/>
  <polygon class="cls-1" points="25.41 52.14 25.46 52.19 25.41 52.23 25.41 52.14"/>
  <rect class="cls-1" x="67.98" y="43.8" width=".09" height=".19"/>
  <rect class="cls-1" x="69.88" y="42.28" width=".09" height=".19"/>
  <polygon class="cls-1" points="69.55 42.66 69.59 42.71 69.55 42.75 69.55 42.66"/>
  <path class="cls-1" d="M70.26,41.33c0,.19,0,.38,0,.57l-.1.28c-.75.16-.93.77-1.45,1.19-.09.08-.69.26-.77.32-.23.18-.36.68-.69.86-.07.04-.3-.11-.36-.09-.24.1-.04.36-.06.37-.16.12-.5,0-.28.29l-.47.1c0-.22,0-.44,0-.66l1.71-1.23-.19-.28c.42.23.86-.65,1.05-.8s.78-.33.92-.45c.09-.07.27-.9.69-.46Z"/>
  <polygon class="cls-1" points="67.27 40.1 67.32 40.15 67.27 40.19 67.27 40.1"/>
  <path class="cls-1" d="M70.26,45.98l-1.04.76.14.28c-.39-.39-.9.53-1.37.52l.28.43-1.14.38.19.38-.15-.2-.47.48-.09-.19-.14.57-.38-.19c0-.41,0-.82,0-1.23l.62-.18c.38-.71.35-.57.91-.91.1-.06.07-.32.09-.33.04-.02.58.49.19-.19.2,0,.75-.25,1.04-.48.02-.02-.12-.25-.09-.28.02-.01.18.11.43-.1.07-.06-.07-.27-.06-.28.15-.11.85-.15,1.04-.48,0,.41,0,.82,0,1.23ZM66.7,48.63v.09l.05-.05-.05-.05Z"/>
  <path class="cls-1" d="M70.26,48.35c-.38.06-.63.69-.85.29l-.43.75-.24-.19.1.38-.86.85-.28-.38c.1.6-.65.6-.82.75-.21.19-.05.75-.51.48l-.29.38c0-.41,0-.82,0-1.23l.84-.3c-.22-.46.14-.17.31-.31.08-.07-.01-.2.09-.28.35-.3,1.14-.68,1.42-.91,0,0-.1-.18-.1-.19.03-.02.34-.02.53-.19.26-.24-.23-.07-.05-.34.04-.06,1.07-.31,1.14-.71,0,.38,0,.76,0,1.14Z"/>
  <polygon class="cls-1" points="63.19 32.8 63.23 32.85 63.19 32.89 63.19 32.8"/>
  <polygon class="cls-1" points="44.2 26.35 44.25 26.4 44.2 26.45 44.2 26.35"/>
  <path class="cls-1" d="M46.43,23.79c-.06.01-.11-.03-.09-.09.04.02.08.05.09.09Z"/>
  <path class="cls-1" d="M47.29,23.13s.06-.07.09-.09l-.09.09Z"/>
  <path class="cls-1" d="M47.57,22.84s.06-.07.09-.09l-.09.09Z"/>
  <path class="cls-1" d="M47.76,22.56s.03-.05.09-.09l-.09.09Z"/>
  <path class="cls-1" d="M27.92,52.61c0,.35,0,.7,0,1.04-.35.34-1.49.4-.95.95l-.89.37c-.07.52-.29.15-.34.19-.03.02-.33.6-.39.65-.09.08-.42-.02-.46.02-.06.06.13.01-.07.22-.17.17-.14.77-.63.46l-.44.46c0-.35,0-.7,0-1.04.14-.23.55-.32.72-.47.06-.05-.09-.26-.05-.29.04-.04.23.11.27.08.15-.14.49-.71.55-.75.1-.08.34.03.4,0,.06-.05.55-.67.58-.7.08-.06.31,0,.38-.06.05-.04,0-.25.01-.27.04-.03.23.14.28.09.03-.03-.14-.22-.09-.27.1-.09.68-.51.75-.39l-.19-.28h.57Z"/>
  <polygon class="cls-1" points="27.5 54.04 27.59 54.13 27.59 54.22 27.54 54.18 27.5 54.04"/>
  <polygon class="cls-1" points="26.93 54.7 26.97 54.74 26.93 54.79 26.93 54.7"/>
  <polygon class="cls-1" points="26.64 55.55 26.69 55.6 26.64 55.65 26.64 55.55"/>
  <polygon class="cls-1" points="24.27 56.59 24.32 56.64 24.27 56.69 24.27 56.59"/>
  <polygon class="cls-1" points="24.17 56.88 24.22 56.93 24.17 56.97 24.17 56.88"/>
  <polygon class="cls-1" points="27.59 41.61 27.64 41.66 27.59 41.71 27.59 41.61"/>
  <path class="cls-1" d="M27.92,43.51c-.32.06-.97.36-.76.76h-.47c.1.35-.81.95-1.15,1.22-.07.06-.63-.23-.57.56l-.93.4.1.38h-.38c0-.35,0-.7,0-1.04l.1-.47c.45.38,1.07-.33,1.19-.76l.09.19,1.43-1.33.19.28c.32-.79.73-.85,1.19-1.42-.01.41,0,.82,0,1.23ZM27.12,43.7v.09l.05-.05-.05-.05ZM25.41,44.74v.09l.05-.05-.05-.05ZM24.74,45.69v.09l.05-.05-.05-.05ZM23.89,46.26v.09l.05-.05-.05-.05Z"/>
  <polygon class="cls-1" points="24.36 45.03 24.41 45.08 24.36 45.12 24.36 45.03"/>
  <path class="cls-1" d="M70.26,50.15c0,.32,0,.63,0,.95l-.38.19.19.38-.38-.19-.19.47-.28-.19.1.38h-.38c.32.62-.76.34-.66.71l-.67.33c.17.62-.04.13-.47.43s-.71.82-1.04,1.18c0-.5,0-1.01,0-1.52l.26.12c.21-.42.45-.18.5-.21.03-.02.02-.67.38-.19.05-.68.22-.27.48-.57l.09-.43.38.24-.09-.47c.32.22.26-.11.48-.38.03.33.74-.58,1.04-.8.07-.05.38-.02.67-.43ZM66.98,53.09v.09l.05-.05-.05-.05Z"/>
  <polygon class="cls-1" points="67.36 53.65 67.41 53.7 67.36 53.75 67.36 53.65"/>
  <path class="cls-1" d="M67.98,39.34s.04.19-.05.19c-.17,0-.17-.35.05-.19Z"/>
  <path class="cls-1" d="M28.97,62l-.05.38-.09-.19-.62.38.1.28-.28-.09.14.38c-.63-.45-.45.22-.53.28-.07.05-.33-.02-.37,0,0,0,.09.14.07.16-.46.37-.97.61-1.25,1.16l-.24-.05.1.43c-.34-.25-.37-.26-.66-.57,0-.69.76-.77.85-.85.03-.02-.14-.25-.1-.28.08-.07.62-.22.74-.31.13-.11,0-.3.07-.35.03-.02.48.27.43-.29l.38.09.57-.85c.24.12.49.24.76.28ZM26.45,63.42l-.14.14.04.04.1-.09v-.09Z"/>
  <path class="cls-1" d="M32.1,62l-4.46,3.98c-.5-.12-.71-.25-1.14-.47-.06-.28.54-.35.57-.38.04-.04-.14-.28-.06-.38.1-.13.6-.1.85-.27.08-.06.71-.82.87-.95.45.26.09-.15.15-.19.03-.03.69-.3.78-.38.32-.27.62-.66.93-.95.49.03,1.04-.05,1.52,0Z"/>
  <path class="cls-1" d="M70.26,55.74c0,.35,0,.7,0,1.04-.77.05-.83,1.09-1.52.95l.09.28c-.64-.18-.44.35-.47.38-.02.02-.22-.01-.29.05-.13.12-.5.61-.71.77-.07.05-.47-.11-.24.22l-1.04.48c0-.25,0-.51,0-.76.47-.17.89-.89,1.21-1.14.12-.09.72-.33.84-.36l.9-1.15.19.28,1.05-1.04Z"/>
  <rect class="cls-1" x="67.98" y="41.9" width=".09" height=".19"/>
  <rect class="cls-1" x="69.97" y="40.29" width=".19" height=".09"/>
  <polygon class="cls-1" points="68.22 41.9 68.26 41.95 68.22 41.99 68.22 41.9"/>
  <polygon class="cls-1" points="67.74 42.28 67.79 42.33 67.74 42.37 67.74 42.28"/>
  <path class="cls-1" d="M70.16,39.06c.07.4.07.66.09,1.04-.85.17-1.4,1.15-2.02,1.67-.13.11-.96.5-1,.54-.18.14-.06.61-.59.44v.38s-.24-.19-.24-.19l-.33.47c0-.38,0-.76,0-1.14.42-.57,1.49-.44,1.33-1.23l.47.09-.19-.14.28-.33.28.19.1-.47c.13-.15.78-.34.81-.37.04-.03.48-.74.51-.77.03-.03.24.14.28.09.02-.02-.18-.55.19-.28Z"/>
  <polygon class="cls-1" points="50.85 26.26 50.89 26.3 50.85 26.35 50.85 26.26"/>
  <polygon class="cls-1" points="52.65 24.93 52.7 24.98 52.65 25.02 52.65 24.93"/>
  <path class="cls-1" d="M54.03,25.78h.09c.38.07.74.56,1.04.76-.29-.1-.37.13-.47.19,0-.01.23-.06.28-.05l-.24.24c-.08.01-.05-.18-.05-.19-.24.13-.37.2-.66.19l.28.28-.29.38c-.18-.41-.14-.23-.57-.19.04.4-.68,1.09-1.04.9l-.11.69-.65.11c-.16-.12-.32-.24-.47-.38l.09-.24c-.12-.14-.14.16-.19.14-.03,0-.07.01-.09,0,.14-.22.7-.85.76-.47l.57-.71-.19-.14,1.28-.76-.1-.28.29.28.43-.76ZM54.03,27.11h-.19v.09h.19v-.09ZM53.31,27.58v.09l.05-.05-.05-.05ZM53.03,27.77v.09l.05-.05-.05-.05ZM52.84,27.87v.09l.05-.05-.05-.05Z"/>
  <polygon class="cls-1" points="53.88 28.44 53.93 28.49 53.88 28.53 53.88 28.44"/>
  <path class="cls-1" d="M27.92,53.65c0,.32,0,.63,0,.95l-.1.57c-.1-.29-.69.11-.91.28-.07.06.07.28.06.29-.06.04-.52-.04-.62.38l-.14-.19c-.33.86-1.05,1.07-1.71,1.56l.19.24-.95.38c0-.38,0-.76,0-1.14l.44-.46c.49.31.46-.29.63-.46.2-.2.02-.16.07-.22.04-.04.38.06.46-.02.06-.05.36-.62.39-.65.06-.04.27.32.34-.19l.89-.37c-.54-.55.6-.61.95-.95ZM27.5,54.04l.05.14.05.04v-.09l-.1-.09ZM26.93,54.7v.09l.05-.05-.05-.05ZM26.64,55.55v.09l.05-.05-.05-.05ZM24.27,56.59v.09l.05-.05-.05-.05ZM24.17,56.88v.09l.05-.05-.05-.05Z"/>
  <path class="cls-1" d="M59.25,29.48c.31.22.64.43.95.66l-.85.19.19.14c-.14.23-.72.44-.76.47-.05.04-.28.47-.41.57-.11.09-.97.39-1.02.43-.04.03.11.24.08.27-.22.2-.68.29-.65.58-.26-.18-.5-.38-.76-.57-.18-.6.62-.62.66-.66.02-.02-.13-.25-.09-.28.04-.04.99-.45,1.04-.28l-.28-.28,1.14-.48-.19-.28.28.04.66-.51Z"/>
  <path class="cls-1" d="M56.87,30.15c.04.1-.2.16-.28.14.08-.1.14-.17.28-.14Z"/>
  <polygon class="cls-1" points="56.45 30.52 56.49 30.57 56.45 30.62 56.45 30.52"/>
  <polygon class="cls-1" points="60.05 31.09 60.1 31.14 60.05 31.19 60.05 31.09"/>
  <polygon class="cls-1" points="27.12 43.7 27.16 43.75 27.12 43.8 27.12 43.7"/>
  <polygon class="cls-1" points="25.41 44.74 25.46 44.79 25.41 44.84 25.41 44.74"/>
  <polygon class="cls-1" points="24.74 45.69 24.79 45.74 24.74 45.79 24.74 45.69"/>
  <polygon class="cls-1" points="23.89 46.26 23.94 46.31 23.89 46.35 23.89 46.26"/>
  <path class="cls-1" d="M34.09,64.08c-.12.63-.37-.31-.29.47-.65-.22-.26.25-.28.28-.01.02-.34.02-.42.09-.1.09-.04.28-.06.29-.04.03-.84.38-.95.38.24.49-.06.14-.28.28l.09.28c-.47,0-.95.02-1.42,0,.53-.72.63-.96,1.61-1.42l-.19-.38.24.18.38-.46.33.18.11-.65.65-.21c.16.22.31.45.47.66Z"/>
  <path class="cls-1" d="M68.36,36.68c-.04-.1.2-.16.28-.14-.08.1-.14.17-.28.14Z"/>
  <polygon class="cls-1" points="66.89 37.63 66.94 37.68 66.89 37.73 66.89 37.63"/>
  <polygon class="cls-1" points="68.41 36.78 68.45 36.83 68.41 36.87 68.41 36.78"/>
  <path class="cls-1" d="M35.52,55.36s.06,0,.09,0h-.09Z"/>
  <polygon class="cls-1" points="66.98 53.09 67.03 53.13 66.98 53.18 66.98 53.09"/>
  <path class="cls-1" d="M70.26,51.1c0,.44,0,.89,0,1.33l-.24-.09c-.54.56-1.2,1.55-2.04,1.52l-.09.76-.47-.19c.21.69-1.16.58-.76,1.33h-.57c0-.32,0-.63,0-.95.34-.36.63-.9,1.04-1.18s.64.2.47-.43l.67-.33c-.1-.37.98-.09.66-.71h.38s-.1-.38-.1-.38l.28.19.19-.47.38.19-.19-.38.38-.19ZM67.36,53.65v.09l.05-.05-.05-.05Z"/>
  <rect class="cls-1" x="53.84" y="27.11" width=".19" height=".09"/>
  <polygon class="cls-1" points="52.84 27.87 52.89 27.92 52.84 27.96 52.84 27.87"/>
  <polygon class="cls-1" points="53.03 27.77 53.08 27.82 53.03 27.87 53.03 27.77"/>
  <polygon class="cls-1" points="53.31 27.58 53.36 27.63 53.31 27.68 53.31 27.58"/>
  <path class="cls-1" d="M70.26,40.1c.02.25-.01.51,0,.76v.19c0,.09,0,.19,0,.28-.41-.44-.6.38-.69.46-.15.12-.75.3-.92.45s-.63,1.03-1.05.8l.19.28-1.71,1.23c0-.38,0-.76,0-1.14l.33-.47.24.19v-.38c.53.16.41-.3.59-.44.04-.04.87-.43,1-.54.61-.52,1.16-1.5,2.02-1.67ZM70.16,40.29h-.19v.09h.19v-.09ZM68.07,42.09v-.19h-.09v.19h.09ZM68.22,41.9v.09l.05-.05-.05-.05ZM67.74,42.28v.09l.05-.05-.05-.05Z"/>
  <path class="cls-1" d="M65.13,62c-.13.49-.87.05-.57.76l-.47-.19v.66s-.24-.19-.24-.19c.08.37-.07.07-.24.15-.27.12-.34.65-.56.23.22.51-.23.27-.28.33-.04.05-.01.73-.76.72l.19.28h-.57s-.05.38-.05.38l-.33-.19.19.14c-.07.15-.5-.14-.1.33l-.38-.19v.47c-.42-.15-.56.1-.67.47-.44,0-.89.02-1.33,0l-.09-.33.28.14.24-.66.24.28-.05-.57c.45-.18,1.05,0,1-.66-.01.41.78-.38.57-.66l.38.19-.09-.47.47.24-.19-.24.53.08.04-.56.38.09v-.57c.75.21.34-.12.43-.2.3-.25.44.02.42-.28.49-.03,1.17.08,1.61,0ZM62.52,63.99v.09l.05-.05-.05-.05ZM61.1,64.27v.09l.05-.05-.05-.05Z"/>
  <polygon class="cls-1" points="62.9 62.19 62.9 62.28 62.81 62.37 62.76 62.33 62.9 62.19"/>
  <polygon class="cls-1" points="69.17 50.05 69.21 50.1 69.17 50.15 69.17 50.05"/>
  <polygon class="cls-1" points="69.36 50.05 69.4 50.1 69.36 50.15 69.36 50.05"/>
  <path class="cls-1" d="M57.44,33.27l.05-.38.14.19-.09-.28h.47s-.09-.38-.09-.38l.19.19.95-.85-.05-.28.43.19-.09-.38c.36.26.97-.57,1.04-.85.1.07.41.16.47.19.29.15.43.32.66.47l-.81.38.14.28c-.33-.1-.52.04-.38.38l-.52-.09.14.47-.47-.19c-.15.58-.84.7-.76,1.14-.18-.41-.41.23-.76.29-.22-.16-.44-.32-.66-.47ZM60.05,31.09v.09l.05-.05-.05-.05Z"/>
  <path class="cls-1" d="M27.92,56.02c0,.41,0,.82,0,1.23-.31.18-.78.75-1,.91-.05.04-.39.05-.41.06-.08.06-.07.31-.12.35-.04.03-.21-.09-.23-.08-.17.14-.03.24-.06.26-.05.04-.24-.01-.27,0-.04.03.13.26.1.28-.07.06-.92.35-.76.67l-.38-.1v.38s-.28-.1-.28-.1l-.11.37-.37-.09-.29.57c-.04-.56.02-1.14,0-1.71.91.01.69-.8,1.42-.76l-.19-.38.57.19v-.66s.38.05.38.05l-.1-.24,2.09-1.23ZM27.31,56.31v.09l.05-.05-.05-.05ZM25.69,58.87v.09l.05-.05-.05-.05Z"/>
  <polygon class="cls-1" points="25.5 60.01 25.55 60.05 25.5 60.1 25.5 60.01"/>
  <polygon class="cls-1" points="24.36 60.95 24.41 61 24.36 61.05 24.36 60.95"/>
  <rect class="cls-1" x="66.75" y="51.29" width=".19" height=".09"/>
  <polygon class="cls-1" points="69.74 48.82 69.78 48.87 69.74 48.91 69.74 48.82"/>
  <polygon class="cls-1" points="69.45 48.91 69.5 48.96 69.45 49.01 69.45 48.91"/>
  <polygon class="cls-1" points="66.98 51 67.03 51.05 66.98 51.1 66.98 51"/>
  <path class="cls-1" d="M50.42,23.13s.07,0,.09,0c0,.36.18.18.19.19.35.17.41.3.66.47-.56-.04-.87.28-1.33.74-.06.06.04.66-.23.12l-.14.57c-.34-.26-.28.21-.59.45-.1.07-.22.06-.4.19-.25.17-.62.23-.71.6-.15-.08-.39-.35-.47-.38l.57-.81.59-.27v-.34s.36.19.36.19l-.19-.47.47.09-.28-.19c.76.09.09-.51.81-.19l.61-.8-.19-.14c.06,0,.13,0,.19,0ZM49.42,24.36v.09l.05-.05-.05-.05Z"/>
  <polygon class="cls-1" points="50.18 25.5 50.23 25.55 50.18 25.59 50.18 25.5"/>
  <polygon class="cls-1" points="49.9 24.93 49.95 24.98 49.9 25.02 49.9 24.93"/>
  <polygon class="cls-1" points="27.21 59.72 27.26 59.77 27.21 59.82 27.21 59.72"/>
  <path class="cls-1" d="M27.92,60.29c.02.28-.01.57,0,.85l-.57.57-.52-.09-.25.55c-.21-.15-.5.53-.56.58-.01.01-.2-.12-.27-.05-.23.2-.38.74-.57.34l-.09.52-.29-.04v.47c-.29-.41-.36-.45-.57-.95h.47s.29-.76.29-.76l.38.19-.19-.14c.27-.25,1.11-.64,1.32-.81.02-.02.08-.45.1-.47.08-.07.49.19.38-.28.32.46.36-.54.95-.47Z"/>
  <path class="cls-1" d="M68.83,36.5c.27.18.3.35.47.57l-.47.1c.47.33-.14.18-.19.23-.02.02.32.38-.19.15v.47s-.33-.19-.33-.19l-.48.38.05.37-.28-.28-.1.43c-.61-.02-.42.75-1.23.71-.01.09.01.19,0,.28-.19-.42-.45-.51-.76-.76l.33-.57.05.38c.28-.25.33-.62.66-.28l.52-1.04.24.38.14-.67,1-.37v-.47c.1-.02.47.12.57.19ZM68.36,36.68c.14.03.2-.04.28-.14-.09-.02-.33.04-.28.14ZM68.41,36.78v.09l.05-.05-.05-.05ZM66.89,37.63v.09l.05-.05-.05-.05Z"/>
  <polygon class="cls-1" points="66.41 37.06 66.46 37.11 66.41 37.16 66.41 37.06"/>
  <polygon class="cls-1" points="65.32 36.97 65.23 36.73 65.51 36.69 65.42 36.87 65.32 36.97"/>
  <path class="cls-1" d="M68.07,35.83l-1.04.52.14.05c-.32-.02-.61.62-.67.19l-.81.95-.24-.19-.1.57c-.7-.02-.17.2-.62.57-.07-.05-.18-.11-.28-.19h.14s.05-.09.05-.09h-.05s-.14.09-.14.09c-.05-.04-.13-.05-.19-.09l-.19-.19s-.07.02-.09,0c.42-.13.35-.54.38-.57.04-.04.23.1.24.09.06-.05-.04-.2.08-.29.25-.18.63.03.63-.28l.09-.09.38-.1.05-.66.42.04-.18-.09c.58-.22.41-.7.85-.52l-.19-.19.38-.19c.29.2.73.35.95.66Z"/>
  <path class="cls-1" d="M27.92,58.21l-1.52,1.42-.19-.19c.08.62-.3.36-.32.38-.12.11-.03.26-.06.28-.12.1-.06-.28-.19-.19-.03.03-.24.42-.48.62-.08.07-.25-.06-.27-.04-.23.2-.35,1.09-.86.65l-.19.47c-.04-.3-.07-.55-.09-.85l.29-.57.37.09.11-.37.28.1v-.38s.38.1.38.1c-.16-.32.69-.6.76-.67.03-.03-.13-.25-.1-.28.03-.02.22.03.27,0,.03-.03-.11-.12.06-.26.01-.01.19.11.23.08.05-.04.04-.29.12-.35.02-.01.36-.03.41-.06.22-.16.69-.73,1-.91,0,.32,0,.63,0,.95ZM25.5,60.01v.09l.05-.05-.05-.05ZM24.36,60.95v.09l.05-.05-.05-.05Z"/>
  <path class="cls-1" d="M44.63,64.75c-.18-.02-.39.06-.47-.19.16.05.34.08.47.19Z"/>
  <polygon class="cls-1" points="25.88 47.78 25.93 47.82 25.88 47.87 25.88 47.78"/>
  <path class="cls-1" d="M27.92,44.55c0,.38,0,.76,0,1.14l-.57-.19.28.47-.57.14.29.14c-.13.19-.59.19-.62.21-.1.06-.02.25-.05.27-.14.08-.07-.24-.14-.19-.42.28-.88,1.17-1.47.95l.28.28-.95.29.28.28-.95.57c0-.38,0-.76,0-1.14.45-.52.94-.74,1.09-1.32l.24.28.09-.53c.5.07.29-.02.58-.23.04.2.08.01.09,0,.11-.08.3-.21.38-.28l-.28-.09.38-.38-.09.47c.34-.32.16-.49.52-.76.06-.04.17.45.33-.1-.17.22.18.21.19.05,0-.08-.18-.05-.19-.05l.38-.38.47.09ZM27.5,45.31v.09l.05-.05-.05-.05ZM27.69,45.31v.09l.05-.05-.05-.05ZM27.69,45.5v.09l.05-.05-.05-.05ZM26.93,46.07v.09l.05-.05-.05-.05ZM26.64,46.17l.05.14.05.04v-.09l-.1-.09ZM26.45,46.26v.09l.05-.05-.05-.05Z"/>
  <path class="cls-1" d="M25.84,45.98h-.09s.05-.2.09,0Z"/>
  <path class="cls-1" d="M27.92,46.45c0,.47,0,.95,0,1.42l-.57.1.19.28h-.66s.19.29.19.29h-.33s.05.28.05.28l-.95.38v.57c-.63-.29-.04.33-.66-.09-.07.03-.4.75-.49.84-.02.03-.24-.12-.27-.09-.08.08,0,.69-.67.66,0-.5,0-1.01,0-1.52l.43.09-.05-.28,1.05-.85.28.19-.04-.28.42-.1-.14-.37.57-.38.21.24.22-.58c.6.13.26-.07.33-.14.05-.04.55-.34.57-.37.19-.2-.11-.57.33-.29ZM27.4,47.11v.09l.05-.05-.05-.05ZM27.21,47.21v.09l.05-.05-.05-.05ZM25.12,48.82v.09l.05-.05-.05-.05ZM26.07,48.82v.09l.05-.05-.05-.05ZM25.98,49.01v.09l.05-.05-.05-.05ZM25.41,49.48v.09l.05-.05-.05-.05ZM25.03,49.67v.09l.05-.05-.05-.05Z"/>
  <path class="cls-1" d="M66.08,34.41c.13.09.26.19.38.28l-1.28,1.42c-.2-.25-.69.33-.72.57l-.23-.19-.9,1.04c-.24-.18-.47-.42-.66-.57.19-.16.93-.23.29-.24l.38-.62.47.09-.09-.38c.25.14.75-.32.93-.49.03-.03-.12-.24-.08-.27.09-.07-.01.24.38,0,.11-.07.16-.07,0-.09l.38.09.19-.57.57-.1Z"/>
  <path class="cls-1" d="M27.92,51.19c0,.47,0,.95,0,1.42h-.57s.19.28.19.28c-.08-.12-.65.3-.75.39-.05.05.12.24.09.27-.05.04-.25-.13-.28-.09-.02.02.04.22-.01.27-.07.06-.3,0-.38.06-.04.03-.53.65-.58.7-.05.04-.3-.07-.4,0-.05.04-.39.62-.55.75-.04.03-.23-.11-.27-.08-.03.03.11.24.05.29-.17.14-.58.24-.72.47,0-.41,0-.82,0-1.23l.52-.66.33.09-.05-.38.43.09-.09-.33.28.05-.09-.28.28.19v-.57c.26.34.59-.11.81-.38l.43.09c-.53-.17-.05-.2.09-.57l.09.19c.08-.53.53-.36.56-.38.08-.06-.07-.54.48-.28l.1-.38Z"/>
  <path class="cls-1" d="M30.58,62c-.31.29-.61.68-.93.95-.09.08-.75.35-.78.38-.06.05.3.46-.15.19-.15.13-.78.89-.87.95-.25.18-.75.14-.85.27-.08.11.1.35.06.38-.03.03-.63.1-.57.38-.27-.14-.35-.22-.57-.38l-.1-.43.24.05c.29-.55.79-.79,1.25-1.16.02-.02-.07-.16-.07-.16.04-.03.31.04.37,0,.08-.06-.1-.73.53-.28l-.14-.38.28.09-.1-.28.62-.38.09.19.05-.38c.47.07,1.11-.03,1.61,0Z"/>
  <polygon class="cls-1" points="26.45 63.42 26.45 63.51 26.36 63.61 26.31 63.56 26.45 63.42"/>
  <polygon class="cls-1" points="49.42 24.36 49.47 24.41 49.42 24.46 49.42 24.36"/>
  <path class="cls-1" d="M70.26,53.65c0,.5,0,1.01,0,1.52-.5-.35-1.02.81-1.23.99-.15.13-.65.12-.67.15-.04.04-.19.98-.76.66.16.52-.92.35-.76,1.04l-.57-.09-.19.38c0-.44,0-.89,0-1.33.24-.02.7-.36.85-.48,0,0-.1-.17-.09-.18.06-.04.53-.12.67-.25.09-.08-.02-.22,0-.23.07-.06.4.3.19-.19.57.25.33-.42.62-.66l.09.19c.72-.21.63-1.16,1.47-.95l-.19-.24.57-.33ZM68.31,55.27v.09l.05-.05-.05-.05Z"/>
  <polygon class="cls-1" points="60.34 34.03 60.39 34.08 60.34 34.13 60.34 34.03"/>
  <polygon class="cls-1" points="54.93 30.52 54.98 30.57 54.93 30.62 54.93 30.52"/>
  <path class="cls-1" d="M27.92,61.14l.28.57-.57.85-.38-.09c.05.56-.4.27-.43.29-.07.05.06.24-.07.35-.11.09-.65.24-.74.31-.04.03.12.26.1.28-.1.09-.85.16-.85.85-.24-.25-.28-.29-.47-.57v-.47s.29.04.29.04l.09-.52c.19.4.34-.14.57-.34.08-.07.26.06.27.05.06-.05.35-.73.56-.58l.25-.55.52.09.57-.57Z"/>
  <polygon class="cls-1" points="64.47 38.3 64.61 38.2 64.66 38.2 64.61 38.3 64.47 38.3"/>
  <path class="cls-1" d="M65.32,36.97l.09-.09-.09.09Z"/>
  <path class="cls-1" d="M66.75,34.88c.13.09.26.2.38.28l-.38.19.19.19c-.44-.18-.27.3-.85.52l.18.09-.42-.04-.05.66-.38.1.09-.19-.29.05.1.24c0,.31-.38.1-.63.28-.13.09-.02.24-.08.29,0,0-.2-.13-.24-.09-.03.03.04.44-.38.57-.13-.09-.25-.19-.38-.28l-.19-.19s-.07.02-.09,0l.9-1.04.23.19c.03-.24.51-.83.72-.57l1.28-1.42s.07-.01.09,0l.19.19Z"/>
  <polygon class="cls-1" points="59.29 34.13 59.34 34.17 59.29 34.22 59.29 34.13"/>
  <path class="cls-1" d="M57.82,28.44l-3.23,2.75c-.18-.13-.38-.25-.57-.38l.41-.73.3.06.05-.38c.57.21.26-.26.28-.28.12-.11.92-.03.76-.76l.28.28.19-.57.19.28v-.37s.57-.49.57-.49c.26.18.51.39.76.57ZM54.93,30.52v.09l.05-.05-.05-.05Z"/>
  <rect class="cls-1" x="53.65" y="25.78" width=".09" height=".19"/>
  <path class="cls-1" d="M53.74,25.5l-.52.48-.24-.19.09.47c-.68-.22-.41.15-.47.19-.04.03-.19-.13-.26-.08-.32.2-.19.44-.21.46-.15.11-1.36.28-.57.43l-.38.05.09.38h-.47s.09.38.09.38l-.47-.09.19.38c-.34-.21-.66-.56-.95-.76l.19-.38.14.19c.18-.35.16-.75.71-.57-.35-.22.85-.56.85-1.09l.14.24c.24-.11.33-.63.46-.73.17-.13.88-.04.64-.41.31.23.63.43.95.66Z"/>
  <polygon class="cls-1" points="53.69 26.07 53.74 26.12 53.69 26.16 53.69 26.07"/>
  <polygon class="cls-1" points="53.5 26.07 53.55 26.12 53.5 26.16 53.5 26.07"/>
  <path class="cls-1" d="M43.21,64.27l-.19-.09c.09.04.18.09.19.09Z"/>
  <polygon class="cls-1" points="33.76 65.6 33.81 65.65 33.76 65.69 33.76 65.6"/>
  <path class="cls-1" d="M41.31,63.32c-.08-.05-.16-.09-.19-.19.1.02.15.11.19.19Z"/>
  <path class="cls-1" d="M47.48,22.09s.06.23.05.28l-.24-.24c-.01-.08.18-.05.19-.05Z"/>
  <path class="cls-1" d="M38.27,30.71l.28.05-.38.14c.39.42-.06.24-.28.28l-.57.19s.07.01.09,0c0,0,.05.2.09,0h.05l.05-.05-.05-.05-.05.09h-.09c-.07-.38.33-.16.47-.19l.38-.47Z"/>
  <path class="cls-1" d="M37.23,31.57c.07.07.21.07.19.19l-.38-.09s-.14-.2.05-.28c.06,0,.08.13.14.19Z"/>
  <polygon class="cls-1" points="45.44 24.46 45.48 24.5 45.44 24.55 45.44 24.46"/>
  <path class="cls-1" d="M26.98,39.72c-.04-.1.2-.16.28-.14-.08.1-.14.17-.28.14Z"/>
  <polygon class="cls-1" points="28.64 38.39 28.68 38.44 28.64 38.49 28.64 38.39"/>
  <polygon class="cls-1" points="35.75 29.95 35.8 30 35.75 30.05 35.75 29.95"/>
  <polygon class="cls-1" points="34.38 31 34.47 31.04 34.43 31.09 34.38 31.04 34.38 31"/>
  <g>
    <path class="cls-1" d="M47.57,69.11v.09h-.76v-.09c.25,0,.51,0,.76,0Z"/>
    <path class="cls-1" d="M46.81,69.11v.09h-.38v-.09c.13,0,.25,0,.38,0Z"/>
    <path class="cls-1" d="M48.52,69.11v.09h-.28v-.09c.09,0,.19,0,.28,0Z"/>
    <path class="cls-1" d="M47.86,69.11v.09h-.28v-.09c.09,0,.19,0,.28,0Z"/>
    <path class="cls-1" d="M46.05,69.11v.09h-.28v-.09c.09,0,.19,0,.28,0Z"/>
    <path class="cls-1" d="M48.71,69.11v.09h-.19v-.09c.06,0,.13,0,.19,0Z"/>
    <path class="cls-1" d="M45.77,69.11v.09h-.19v-.09c.06,0,.13,0,.19,0Z"/>
    <path class="cls-1" d="M46.24,69.11v.09h-.19v-.09c.06,0,.13,0,.19,0Z"/>
    <path class="cls-1" d="M46.43,69.11v.09h-.19v-.09c.06,0,.13,0,.19,0Z"/>
    <path class="cls-1" d="M48.05,69.11v.09h-.19v-.09c.06,0,.13,0,.19,0Z"/>
    <path class="cls-1" d="M48.24,69.11v.09h-.19v-.09c.06,0,.13,0,.19,0Z"/>
    <path class="cls-1" d="M59.63,62.38c-.13.2-.24.37-.38.57l-11.48,2.65-.62.1-7.07,1.7c-.23-.12-.44-.25-.66-.38l.22-.27,2.06-.49-.05.19c.16-.13.78-.32,1.04-.38.1-.02,0,.21.1.19.21-.05.75-.67,1.09-.29l-.19-.19.71-.07c.8-.02,1.66-.46,2.38-.59.03,0,0,.31.52-.1,2.08-.17,2.95-.73,4.75-1.14.53-.12,1.3-.1,1.74-.19,1.94-.43,3.86-1.09,5.86-1.32Z"/>
    <path class="cls-1" d="M53.55,55.36c-1,.38-2.15.69-3.18.92-2.7.59-5.41,1.19-8.11,1.79-.21.05-.22-.36-.35.04l-8.48,1.89c-.03-.09-.27-.25-.19-.47l2.23-.48-.05-.19c3.06-.56,6.12-1.19,9.16-1.82s5.78-1.6,8.97-1.68Z"/>
    <path class="cls-1" d="M55.74,55.36c-.48.1-1.57.64-1.66.38l-2.96.75c-1.64.18-3.55.92-4.97,1.24-.08.02-.22-.24-.42-.19-2.33.51-4.7,1.21-7.08,1.66-.14.03-.33,0-.28.24-.24.02-.4.08-.57.09-1.42.16-2.8.63-4.18.95-.07-.18-.12-.25-.19-.47l8.48-1.89c.14-.4.15,0,.35-.04,2.7-.6,5.41-1.19,8.11-1.79,1.04-.23,2.18-.54,3.18-.92.72-.02,1.46,0,2.18,0Z"/>
    <path class="cls-1" d="M42.26,55.36c-.45.4-1.35.34-1.92.48-.09.02-.06.18-.07.18-.3.07-.13-.21-.23-.18-.08.02-.1.27-.21.29-2.92.65-5.94,1.24-8.91,1.98-.08.02.02-.24-.19-.19s-.95.55-1.19.38c-.04.14.05.19.09.28-.24-.13-.35-.52-.38-.76.4-.06,1.04-.37,1.39-.46.15-.04.34.18.37.17.08-.02.13-.26.16-.26.33-.07.55-.18.7-.21.04,0,.17.3.62.19.01,0-.01-.28,0-.29.42-.09,1.31.09,1.62-.38l.85.09-.1-.19,1.14-.1-.1-.19,1.75-.28,2.14-.58c.82,0,1.65,0,2.47,0Z"/>
    <path class="cls-1" d="M42.64,55.36c-.04.27.13.27.09,0,.47,0,.95,0,1.42,0h.09c.13,0,.25,0,.38,0l-5.41,1.14.1.19-2.41.38c.04.31-.73.2-1.19.19l.1.19-4.74.86-1.33.47c-.06-.08-.06-.11-.09-.19-.04-.09-.13-.15-.09-.28.24.17.99-.33,1.19-.38s.11.21.19.19c2.97-.74,5.99-1.33,8.91-1.98.11-.02.13-.27.21-.29.1-.02-.07.25.23.18,0,0-.02-.16.07-.18.57-.13,1.47-.08,1.92-.48.13,0,.25,0,.38,0Z"/>
    <path class="cls-1" d="M58.3,64.08c-.28.32-.44.54-.76.85.09-.26-.83-.06-.9-.04-3.86.75-7.73,1.95-11.63,2.6l-.09-.38s.06,0,.09,0c.12-.03.26-.07.38-.09,0,0,0-.09,0-.09h.09c.13-.03.18,0,.19,0l.76.19.1-.38c3.9-.87,7.85-1.82,11.77-2.65ZM45.25,67.31v.09l.05-.05-.05-.05Z"/>
    <path class="cls-1" d="M59.53,59.25h-.09c.14-.03.09,0,.09,0Z"/>
    <path class="cls-1" d="M64.94,58.11c-.13.4-.25.58-.57.85l-.71.29v-.28s-.52.38-.52.38l.05-.19-1.19.28s-.06,0-.09,0h-.19c-.34.04-.62.18-.66.19-1.61.24-3.29.34-4.8,1.04l-.33-.19c.1-.15.17-.33.28-.47.85-.24,1.84-.3,2.68-.48.03,0,.22-.21.54-.28h.09c.51-.11,1.85-.02,1.9-.57l.38.19-.05-.19,3.18-.57ZM63.95,58.87v.09l.05-.05-.05-.05Z"/>
    <path class="cls-1" d="M52.98,66.93l2.66-.38c-.34.23-.68.46-1.04.66.14-.21.13-.22-.12-.17-.74.15-1.69.41-2.63.46l.19.19c-.9-.17-2.35.64-3.7.57l.19.19-2.85.48.09.19c-.06,0-.13,0-.19,0-.36-.03-.69-.13-1.04-.19l1.85-.64,6.5-1.35h.09Z"/>
    <path class="cls-1" d="M64.75,56.21c.04.07.06.12.09.19-.03.02-.06.07-.09.09-.05.03-.13.08-.19.09.02-.32-.08-.2-.19,0-.03,0-.06,0-.09,0-.06,0-.14.09-.19.09-.03,0-.06,0-.09,0-.17.02-.52-.16-.66.19-.03,0-.06,0-.09,0-.13,0-.31-.04-.38.09-.03,0-.06,0-.09,0-.06,0-.09.09-.09.09-.03,0-.06,0-.09,0,.14-.31-.57-.11-.66.09-.03,0-.06,0-.09,0-.17.04-.35.05-.47.19-.03,0-.06,0-.09,0-.11,0-.42-.29-.57.09-.06,0-.13,0-.19,0s-.09.09-.09.09c-.03,0-.06,0-.09,0-.24.03-.69-.13-.95.19-.06.01-.13,0-.19,0s-.09.09-.09.09c-.03,0-.06,0-.09,0,0,0,.03-.02-.09,0-.14.02-.09,0-.09,0s.04-.03-.09,0c-.03,0-.07.09-.09.09,0,0,0-.04-.19,0-.03,0-.06,0-.09,0-.04,0-.08.09-.09.09s-.13-.03-.28,0c-.19.04-.06.09-.09.09-.01,0-.12-.03-.28,0-.37.07-.82.03-1.14.28-.06,0-.13,0-.19,0-.22.03-.18.09-.19.09-.03,0-.06,0-.09,0-.12.02-.24-.12-.47.09-.06,0-.13,0-.19,0-.07,0-.09.09-.09.09-.03,0-.06,0-.09,0-.21.04-.19.04-.38.09-.48.13-.39.44-.52.1l-1.76.57c-.54,0-1.08,0-1.61,0l3.56-1.04,1.24-.1-.05-.19,3.37-.57.43-.28,5.4-1.05ZM59.58,57.35v.09l.05-.05-.05-.05Z"/>
    <path class="cls-1" d="M64.94,56.59c.04.1.07.18.09.28l-11.3,2.56c-.44,0-.89,0-1.33,0l1.76-.57c.13.34.04.04.52-.1l.38-.09s.06,0,.09,0l.09-.09c.06,0,.13,0,.19,0,0,0-.04.2.05.19l.43-.28s.06,0,.09,0l.19-.09c.06,0,.13,0,.19,0,.38-.06.82-.04,1.14-.28.17-.03.27,0,.28,0,.21.13.22.11.09-.09.15-.03.27,0,.28,0l.09-.09s.06,0,.09,0h.19s.07-.09.09-.09h.09s-.04.02.09,0h.09s.06,0,.09,0l.09-.09c.06,0,.13.01.19,0,.31-.05.66-.04.95-.19.03,0,.06,0,.09,0l.09-.09c.06,0,.13,0,.19,0,.15-.02.39.03.57-.09.03,0,.06,0,.09,0,.19,0,.37-.07.57,0l-.09-.19s.06,0,.09,0c.23-.04.44-.06.66-.09.03,0,.06,0,.09,0l.09-.09s.06,0,.09,0c.1-.01.3.19.38-.09.03,0,.06,0,.09,0,.27,0,.39.09.66-.19.03,0,.06,0,.09,0l.19-.09s.06,0,.09,0c0,0-.02.06.19,0,.06-.02.14-.06.19-.09.07.05-.03.16.05.19,0,0,.1-.09.14-.09Z"/>
    <path class="cls-1" d="M35.52,55.36h.09c.76-.02,1.52.01,2.28,0-.19.57-.18.1-.23.11-.49.02-1.03.34-1.52.44-1.26.27-2.74.47-4.13.75-.43.08-.44.31-.47.32-.05,0-.54-.24-.9-.09.1.33-.12.2-.29,0l.05.38-.76-.09.1.19-.47-.09c0,.16,0,.32,0,.47-.23-.25-.07-.59,0-.85l5.98-1.52c.09,0,.19,0,.28,0Z"/>
    <path class="cls-1" d="M53.27,63.13c.9-.3,2.4-.31,3.35-.67.21-.42.04.06.4-.02.69-.15,1.41-.46,2.09-.61.04,0,1.12-.24.81.07-.1.16-.18.31-.28.47-1.99.23-3.91.89-5.86,1.32-.43.1-1.21.07-1.74.19.36-.26.82-.62,1.23-.76Z"/>
    <path class="cls-1" d="M45.77,69.11l-.09-.19,2.85-.48-.19-.19c1.35.07,2.8-.74,3.7-.57l-.19-.19c.94-.04,1.89-.31,2.63-.46.25-.05.27-.04.12.17-.43.24-.8.38-1.23.57l-1.09.38-.24-.28-.14.38-.1-.28-.05.28-.76-.09.19.19-.62.08-1.13.02c-.17.22-.4.16-.58.2-.09.02-.02.27-.04.27-.17.04-.01-.24-.23-.19-.35.08-.67.27-1.09.19l.09.19c-.25,0-.51,0-.76,0-.13,0-.25,0-.38,0-.06,0-.13,0-.19,0s-.13,0-.19,0c-.09,0-.19,0-.28,0Z"/>
    <path class="cls-1" d="M44.63,64.75c.33.04.75.02,1.04.19-1.55.13-4.64.85-6.21,1.25-.11.03-.69.25-.81.36-.21-.14-.38-.33-.57-.47l1.47-.29-.05-.19,1.61-.1,2.94-.95s.07,0,.09,0c.09.25.29.17.47.19Z"/>
    <path class="cls-1" d="M63.42,55.36c.16.02.24.05.38.09l-7.59,1.71.1.19h-.76c-.64-.03-1.28.18-1.9.29,0-.28.1-.21.27-.26,1.12-.28,2.28-.37,3.38-.62.62-.14,1.67-.63,2.28-.74.13-.02.36.2.38.19.07-.01-.06-.25.09-.28.09-.02.01.2.09.19.26-.04,1.11-.31,1.33-.48h.19s1.19-.28,1.19-.28c.18.01.39-.02.57,0Z"/>
    <path class="cls-1" d="M60.58,60.67c-.1.2-.18.37-.28.57l-6.17,1.23c.13-.11.25-.4.47-.47,1.96-.56,3.96-1.04,5.98-1.33Z"/>
    <path class="cls-1" d="M60.86,60.1c-.1.24-.19.37-.28.57-2.02.29-4.02.77-5.98,1.33.21-.26.48-.58.76-.76.36-.22,3.72-.96,4.41-1.12.11-.02,1.01-.19,1.09-.02Z"/>
    <path class="cls-1" d="M60.29,61.24c-.13.25-.24.42-.38.66.32-.31-.76-.08-.81-.07-.68.14-1.4.45-2.09.61-.36.08-.18-.39-.4.02-.95.36-2.45.37-3.35.67.22-.29.58-.44.85-.66l6.17-1.23Z"/>
    <path class="cls-1" d="M42.54,63.99s-.06.07-.09.09c-.05.03-.13.08-.19.09h-.28s0,.09,0,.09c-.01,0-.04-.04-.19,0-.05.02-.14-.02-.19,0-.12.03-.27.09-.28.09-.22.05-.27.19-.28.19h-.19s-.06,0-.09,0h-.09l-3.42.85c-.16-.14-.25-.26-.38-.38-.03-.23.68-.39.81-.42.83-.17,1.71-.26,2.55-.45.14-.03.15-.26.16-.27.06-.01,1,.15,1.28-.04l.14-.25c.21.11.55.28.76.38Z"/>
    <path class="cls-1" d="M61.05,59.63c0,.2-.13.33-.19.47-.08-.17-.98,0-1.09.02-.7.16-4.05.89-4.41,1.12.18-.26.39-.5.57-.76l.33.19c1.5-.71,3.19-.81,4.8-1.04Z"/>
    <path class="cls-1" d="M39.03,61.33c.19.05.28.29.38.38l-4.46,1.04c-.07-.1-.12-.18-.19-.28l-.19-.19s.01-.07,0-.09l2.19-.42,1.99-.62.28.19Z"/>
    <path class="cls-1" d="M38.55,60.76c.13.17.37.35.47.57l-.28-.19-1.99.62-2.19.42c-.11-.17-.18-.3-.28-.47l4.27-.95Z"/>
    <path class="cls-1" d="M39.41,61.71c.12.1.26.27.38.38l-4.56,1.04c-.1-.13-.18-.24-.28-.38l4.46-1.04Z"/>
    <path class="cls-1" d="M42.45,64.08c.03.45.05-.05.28,0,.08.04.19.06.28.09l.19.09c-.07.18-.93.26-1.14.28h.05l.05-.05-.05-.05-.05.09c-.05,0-.13.08-.19.09-.05-.06-.06-.01-.09,0-.28.11-.48.13-.76.19-.05-.07-.05-.03-.09,0-.32.21-2.62.62-3.12.73l-.11.22c-.15-.13-.33-.25-.47-.38l3.42-.85h.09s.06,0,.09,0c0,0-.02.05.19,0,.02,0,.07-.14.28-.19l.28-.09c.05-.02.14.02.19,0h.19s0-.09,0-.09c.03,0,.11.06.28,0,.06-.02.14-.06.19-.09ZM42.35,64.46v-.19h-.09v.19h.09ZM40.55,64.84v-.19h-.09v.19h.09ZM40.22,64.84v.09l.05-.05-.05-.05Z"/>
    <path class="cls-1" d="M40.64,62.85c-.96-.06-2.1.78-2.66.38.09.5-.25.15-.57.23-.23.06-.28.31-.3.31-.31.07-.91-.3-1.31.12-.03-.03-.07-.06-.09-.09l-.19-.19s.02-.08,0-.09l1.38-.37c.02.35.42-.09.75-.16.58-.13,1.35-.22,1.95-.36.18-.04.33-.14.47-.24.18.15.39.33.57.47Z"/>
    <path class="cls-1" d="M37.8,59.53c.07.17.18.32.28.47l-4.27.85c-.06-.12-.12-.21-.19-.38,1.38-.31,2.76-.78,4.18-.95Z"/>
    <path class="cls-1" d="M41.5,63.42c.1.06.21.15.28.19l-.14.25c-.28.19-1.21.03-1.28.04-.02,0-.02.24-.16.27-.83.19-1.72.27-2.55.45-.13.03-.84.18-.81.42-.1-.1-.19-.19-.28-.28l.62-.47,4.32-.85Z"/>
    <path class="cls-1" d="M41.02,63.13s.07,0,.09,0c.03.1.11.14.19.19.05.03.13.06.19.09l-4.32.85-.62.47c-.13-.13-.25-.24-.38-.38.49-.3,1.11-.44,1.66-.57.26-.06-.02.21.09.19.1-.02.1-.24.19-.26.27-.06.95-.06,1.21-.11.04,0,.42-.23.68-.29s-.02.21.09.19.48-.4.9-.38Z"/>
    <path class="cls-1" d="M53.36,67.78c-1.6.71-2.87,1.15-4.65,1.33-.06,0-.13,0-.19,0-.09,0-.19,0-.28,0-.06,0-.13,0-.19,0s-.13,0-.19,0c-.09,0-.19,0-.28,0l-.09-.19c.42.08.75-.11,1.09-.19.22-.05.07.23.23.19.02,0-.05-.25.04-.27.17-.04.4.02.58-.2l1.13-.02.62-.08-.19-.19.76.09.05-.28.1.28.14-.38.24.28,1.09-.38Z"/>
    <path class="cls-1" d="M38.55,60.76l-4.27.95s-.08-.06-.09-.09l-.19-.28s.01-.07,0-.09l4.27-.95c.1.15.19.34.28.47Z"/>
    <path class="cls-1" d="M44.91,67.12l.09.38-3.04.76c-.26-.09-.51-.18-.76-.28l3.7-.85Z"/>
    <path class="cls-1" d="M64.47,55.93c-.79.27-1.66.3-2.47.47l.14-.24c.71-.1,1.4-.18,2.04-.52.17.1.18.19.28.28Z"/>
    <path class="cls-1" d="M56.97,65.41v.09c-.18.16-.38.32-.57.47h-1.47c-.17.51-.16.1-.24.09l2.28-.66Z"/>
    <path class="cls-1" d="M62,59.44l1.19-.28-.05.19.52-.38v.28s.71-.29.71-.29c-.9.75-1.39.35-2.37.47Z"/>
    <path class="cls-1" d="M64.94,56.59s-.14.1-.14.09c-.07-.03.02-.14-.05-.19.03-.02.06-.07.09-.09.03.06.07.12.09.19Z"/>
    <path class="cls-1" d="M34.19,61.62c-.05-.08-.13-.16-.19-.28l.19.28Z"/>
    <path class="cls-1" d="M61.91,59.44c-.06,0-.13,0-.19,0h.19Z"/>
    <path class="cls-1" d="M42.26,68.35c-.09-.03-.15-.08-.19-.09l.19.09Z"/>
    <path class="cls-1" d="M34.76,62.47s-.12-.08-.19-.19l.19.19Z"/>
    <path class="cls-1" d="M35.71,63.8c-.04-.05-.12-.1-.19-.19l.19.19Z"/>
    <path class="cls-1" d="M57.54,64.94c-.2.19-.36.38-.57.57v-.09l.19-.28c-.74.24-1.57.28-2.4.48-.08.02-.07.17-.13.19-.31.07-.7-.38-.55.18l-3.56.48.09.28c-.24-.43-.53.18-.57.19-.17.04-.03-.21-.14-.19-.43.07-1.13.3-1.85.29l.1.19c-.91.08-1.68.2-2.54.39-.04,0-.08.25-.16.27-.02,0-.14-.2-.27-.17-.48.11-1.09.46-1.54.37l-.99.37c-.12-.04-.24-.05-.38-.09l-.19-.09s-.07.01-.09,0l3.04-.76c3.9-.65,7.77-1.85,11.63-2.6.07-.01.99-.21.9.04Z"/>
    <path class="cls-1" d="M56.4,65.98c-.25.2-.49.39-.76.57l-2.66.38h-.09l-6.5,1.35-1.85.64c-.36-.06-.69-.11-1.04-.19,1.18-.51,2.6-.78,3.89-1.04.8-.17,1.65-.11,2.37-.57h.09c.16.41.34-.06.57-.09,0,0,0,.19.04.18.36-.06,1.07-.33,1.38-.56h.09l-.14.29,1.56-.57c.4-.04.98.08,1.23-.28.03,0,.06,0,.09,0,.08,0,.07.42.24-.09h1.47Z"/>
    <path class="cls-1" d="M61.15,55.36l-5.55,1.42c-.1.02.07-.25-.24-.19-.67.15-1.73.52-2.53.75l-9.14,2.1c-.63,0-1.27-.01-1.9,0l18.03-4.08c.44,0,.89-.01,1.33,0Z"/>
    <path class="cls-1" d="M59.82,55.36l-18.03,4.08c-.32,0-.63,0-.95,0l17.47-4.08c.5-.03,1.02,0,1.52,0ZM49.71,57.54v.09l.05-.05-.05-.05Z"/>
    <path class="cls-1" d="M48.52,55.36l.09.09c-.89.2-1.85.57-2.63.74-.57.12-.55-.41-.65.12l-.52.19-.14-.28-3.7,1.03-.43.2-.47-.19.19.19-6.6,1.52-.23-.28.05.28-2.23.48c-.46-.05-.62-.06-1.04-.28l1.47-.29-.05-.19,4.75-.85-.1-.19,3.22-.58.24-.03c.4-.12.84-.33,1.24-.41.37-.08,1.51,0,1.38-.4l3.89-.85c.76,0,1.52,0,2.28,0ZM42.54,56.78h-.19v.09h.19v-.09Z"/>
    <path class="cls-1" d="M49.19,55.36c-.12.18-.41.06-.57.09v-.09c.19,0,.38,0,.57,0Z"/>
    <path class="cls-1" d="M45.67,64.94c.57-.05,1.09.14,1.61.09-.53.4-.49.09-.52.1-.72.13-1.58.57-2.38.59l-.71.07.19.19c-.34-.38-.88.24-1.09.29-.1.02,0-.21-.1-.19-.26.05-.88.25-1.04.38l.05-.19-2.06.49-.22.27c-.25-.15-.52-.31-.76-.47.12-.1.7-.33.81-.36,1.57-.4,4.66-1.12,6.21-1.25Z"/>
    <path class="cls-1" d="M59.25,62.95c-.22.31-.42.56-.66.85-.12-.13-.36-.18-.53-.15-1.3.23-2.86.81-4.18,1.1-.23.05.08-.51-.35.03l-6.05,1.35c-2.3.51-4.64.91-6.93,1.47-.14-.07-.31-.1-.47-.19l7.07-1.7.62-.1,11.48-2.65ZM58.63,63.13v.09l.05-.05-.05-.05Z"/>
    <path class="cls-1" d="M48.62,55.46l-.09-.09s.06,0,.09,0v.09Z"/>
    <path class="cls-1" d="M63.42,55.36c-.18-.02-.38.01-.57,0-.56-.04-1.14.01-1.71,0-.44-.01-.89,0-1.33,0-.5,0-1.02-.03-1.52,0-.37.02-.78-.04-1.14,0h-1.42c-.73,0-1.46-.02-2.18,0-3.19.09-5.92,1.04-8.97,1.68s-6.1,1.26-9.16,1.82l.05.19-2.23.48c-.64-.22-1.35-.02-1.99-.09l2.23-.48-.05-.28.23.28,6.6-1.52-.19-.19.47.19.43-.2,3.7-1.03.14.28.52-.19c.09-.53.07,0,.65-.12.78-.16,1.75-.54,2.63-.74.16-.04.45.09.57-.09.03,0,.06,0,.09,0h.09c.64,0,1.37.08,1.99-.09l12.05.09Z"/>
    <rect class="cls-1" x="42.35" y="56.78" width=".19" height=".09"/>
    <path class="cls-1" d="M45.29,55.36c.32,0,.63,0,.95,0l-3.89.85c.13.39-1,.31-1.38.4-.4.09-.83.3-1.24.41l-.24.03-3.22.58.1.19-4.75.85.05.19-1.47.29c-.08-.04-.43-.32-.47-.38l1.33-.47,4.74-.86-.1-.19c.47,0,1.24.12,1.19-.19l2.41-.38-.1-.19,5.41-1.14c.22,0,.44,0,.66,0Z"/>
    <polygon class="cls-1" points="58.63 63.13 58.68 63.18 58.63 63.23 58.63 63.13"/>
    <path class="cls-1" d="M46.53,66.74l-.1.38-.76-.19c.28-.06.57-.13.85-.19Z"/>
    <path class="cls-1" d="M45.39,67.02c-.12.03-.25.07-.38.09l.38-.09Z"/>
    <path class="cls-1" d="M45.48,66.93h-.09c.14-.03.09,0,.09,0Z"/>
    <path class="cls-1" d="M58.58,63.8c-.11.13-.21.2-.28.28-3.92.83-7.87,1.78-11.77,2.65-.29.06-.57.13-.85.19,0,0-.06-.03-.19,0,0,0,.05-.03-.09,0,0,0,0,.09,0,.09l-.38.09s-.06,0-.09,0l-3.7.85c-.25-.11-.46-.28-.66-.38,2.29-.56,4.63-.95,6.93-1.47l6.05-1.35c.43-.54.13.02.35-.03,1.31-.29,2.87-.86,4.18-1.1.17-.03.4.02.53.15Z"/>
    <polygon class="cls-1" points="45.25 67.31 45.29 67.35 45.25 67.4 45.25 67.31"/>
    <path class="cls-1" d="M61.91,56.4c-2.93.64-5.64,1.39-8.64,1.9l8.64-1.9Z"/>
    <polygon class="cls-1" points="50.56 58.96 50.61 59.01 50.56 59.06 50.56 58.96"/>
    <path class="cls-1" d="M64.18,55.65c-.64.34-1.33.42-2.04.52l-.14.24s-.06,0-.09,0l-8.64,1.9c-.19.03-.43,0-.62.03-.42.06-.9.54-1.09.16l-.43.38.05-.19c-.54-.15-.24.24-.43.28-.09.02-.01-.21-.09-.19-.35.08-.6.13-.95.19-.1.02.12.16,0,.19-.05,0-.83-.38-.81.29-.63,0-1.27,0-1.9,0l8.54-2.09h.76s-.1-.19-.1-.19l7.59-1.71c.18.05.24.11.38.19Z"/>
    <polygon class="cls-1" points="49.52 59.15 49.57 59.2 49.52 59.25 49.52 59.15"/>
    <polygon class="cls-1" points="63.95 58.87 63.99 58.92 63.95 58.96 63.95 58.87"/>
    <path class="cls-1" d="M65.04,57.64s0,.06,0,.09c-.02.21-.04.22-.09.38l-3.18.57.05.19-.38-.19c-.04.55-1.39.45-1.9.57,0,0,.04-.03-.09,0-.32.07-.51.27-.54.28-.84.18-1.83.24-2.68.48.12-.14.2-.31.28-.47l3.56-.95c-.1.38.78-.28.99,0l-.19-.19,4.18-.76Z"/>
    <path class="cls-1" d="M51.84,66.64c-.31.23-1.03.51-1.38.56-.05,0-.03-.19-.04-.18-.23.03-.41.51-.57.09l1.99-.47Z"/>
    <path class="cls-1" d="M49.76,67.12c-.72.46-1.57.4-2.37.57l2.37-.57Z"/>
    <path class="cls-1" d="M54.6,66.07c-.25.37-.83.24-1.23.28l-1.56.57.14-.29c.38-.29,1-.24,1.42-.28-.04-.24.92-.28,1.23-.28Z"/>
    <path class="cls-1" d="M42.64,68.44l.99-.37c.45.09,1.06-.26,1.54-.37.13-.03.25.17.27.17.08-.02.12-.26.16-.27.86-.2,1.64-.32,2.54-.39l-.1-.19c.72.01,1.42-.21,1.85-.29.11-.02-.03.23.14.19.04,0,.33-.62.57-.19l-.09-.28,3.56-.48c-.15-.56.24-.12.55-.18.07-.01.05-.17.13-.19.83-.2,1.66-.24,2.4-.48l-.19.28-2.28.66s-.06,0-.09,0c-.32,0-1.27.05-1.23.28-.43.05-1.04,0-1.42.28h-.09l-1.99.47h-.09l-2.37.57c-1.29.27-2.71.53-3.89,1.04-.31-.07-.57-.2-.85-.28Z"/>
    <path class="cls-1" d="M55.55,57.35l-8.54,2.09c-.47,0-.95,0-1.42,0l7.54-1.88c.11,0,.46.09.52.08.62-.1,1.26-.32,1.9-.28Z"/>
    <path class="cls-1" d="M39.41,55.46c.17.11-.45.12-.28,0,.01,0,.27-.01.28,0Z"/>
    <path class="cls-1" d="M63.99,56.69c-.27.28-.39.18-.66.19.15-.35.5-.17.66-.19Z"/>
    <path class="cls-1" d="M61.24,57.35c-.18.13-.42.08-.57.09.15-.39.46-.1.57-.09Z"/>
    <path class="cls-1" d="M62.57,57.07c-.22.03-.44.05-.66.09.09-.2.8-.41.66-.09Z"/>
    <path class="cls-1" d="M57.54,58.11c-.32.24-.76.23-1.14.28.32-.26.77-.21,1.14-.28Z"/>
    <path class="cls-1" d="M55.07,58.68l-.38.09c.19-.05.17-.05.38-.09Z"/>
    <path class="cls-1" d="M60.29,57.54c-.29.15-.64.14-.95.19.26-.32.7-.16.95-.19Z"/>
    <path class="cls-1" d="M63.23,56.88c-.08.28-.28.08-.38.09.07-.13.25-.1.38-.09Z"/>
    <path class="cls-1" d="M61.81,57.16l.09.19c-.2-.07-.38,0-.57,0,.13-.14.31-.15.47-.19Z"/>
    <path class="cls-1" d="M55.93,58.49l-.43.28c-.09,0-.04-.19-.05-.19.23-.22.36-.07.47-.09Z"/>
    <path class="cls-1" d="M64.56,56.59c-.21.06-.18,0-.19,0,.11-.2.21-.32.19,0Z"/>
    <path class="cls-1" d="M58.58,57.92h-.19c.18-.04.18,0,.19,0Z"/>
    <path class="cls-1" d="M59.15,57.73l-.09.09s.04-.09.09-.09Z"/>
    <path class="cls-1" d="M57.92,58.02c.13.2.11.23-.09.09.03,0-.1-.06.09-.09Z"/>
    <path class="cls-1" d="M64.09,56.69c.05,0,.13-.09.19-.09l-.19.09Z"/>
    <path class="cls-1" d="M62.66,57.07s.03-.09.09-.09l-.09.09Z"/>
    <polygon class="cls-1" points="59.58 57.35 59.63 57.4 59.58 57.45 59.58 57.35"/>
    <path class="cls-1" d="M60.39,57.54s.03-.09.09-.09l-.09.09Z"/>
    <path class="cls-1" d="M58.77,57.83h-.09c.14-.03.09,0,.09,0Z"/>
    <path class="cls-1" d="M58.96,57.83h-.09c.12-.02.09,0,.09,0Z"/>
    <path class="cls-1" d="M58.2,58.02s.06-.09.09-.09l-.09.09Z"/>
    <path class="cls-1" d="M64.47,55.93c.11.11.18.12.28.28l-5.4,1.05-.43.28-3.37.57.05.19-1.24.1-3.56,1.04h-1.9c-.03-.67.76-.28.81-.29.12-.02-.1-.17,0-.19.35-.06.6-.11.95-.19.08-.02,0,.21.09.19.18-.04-.12-.43.43-.28l-.05.19.43-.38c.19.37.67-.1,1.09-.16.19-.03.43,0,.62-.03,2.99-.51,5.71-1.26,8.64-1.9.03,0,.06,0,.09,0,.81-.17,1.68-.2,2.47-.47ZM50.56,58.96v.09l.05-.05-.05-.05ZM49.52,59.15v.09l.05-.05-.05-.05Z"/>
    <path class="cls-1" d="M56.21,58.39l-.19.09s-.03-.06.19-.09Z"/>
    <path class="cls-1" d="M55.17,58.68s.02-.09.09-.09l-.09.09Z"/>
    <path class="cls-1" d="M39.79,55.36l-2.14.58-1.75.28.1.19-1.14.1.1.19-.85-.09c-.3.47-1.2.29-1.62.38-.01,0,.01.28,0,.29-.45.11-.58-.2-.62-.19-.15.03-.37.14-.7.21-.03,0-.08.25-.16.26-.03,0-.21-.21-.37-.17-.35.09-.99.4-1.39.46,0-.03,0-.06,0-.09,0-.16,0-.32,0-.47l.47.09-.1-.19.76.09-.05-.38c.16.19.39.33.29,0,.36-.14.85.1.9.09.03,0,.04-.23.47-.32,1.39-.27,2.87-.47,4.13-.75.5-.11,1.03-.43,1.52-.44.06,0,.04.46.23-.11.63,0,1.27,0,1.9,0ZM39.41,55.46s-.27,0-.28,0c-.17.12.45.11.28,0Z"/>
    <path class="cls-1" d="M55.93,59.44l-.1-.24,3.46-.7.91-.1,2.95-.66-.1-.19,1.99-.38c0,.16,0,.32,0,.47l-4.18.76.19.19c-.22-.27-1.09.38-.99,0l-3.56.95c-.12-.16-.39-.09-.57-.09Z"/>
    <path class="cls-1" d="M44.06,64.56l-2.94.95-1.61.1.05.19-1.47.29c-.13-.1-.25-.18-.38-.28l.11-.22c.5-.1,2.8-.52,3.12-.73h.09c.28-.06.48-.08.76-.19h.09c.06-.02.14-.09.19-.09.2-.03,1.07-.1,1.14-.28.26.1.59.2.85.28Z"/>
    <path class="cls-1" d="M41.88,64.65h-.09s.05-.06.09,0Z"/>
    <path class="cls-1" d="M41.02,64.84h-.09s.04-.07.09,0Z"/>
    <path class="cls-1" d="M42.73,64.08c-.24-.05-.25.45-.28,0,.03-.02.06-.07.09-.09.06.03.13.07.19.09Z"/>
    <path class="cls-1" d="M41.59,64.27l-.28.09s.17-.06.28-.09Z"/>
    <path class="cls-1" d="M42.26,64.18c-.17.06-.25,0-.28,0h.28Z"/>
    <path class="cls-1" d="M41.02,64.56c-.21.05-.18,0-.19,0h.19Z"/>
    <path class="cls-1" d="M41.97,64.27h-.19c.15-.04.18,0,.19,0Z"/>
    <path class="cls-1" d="M39.79,62.09c.11.1.21.22.28.28-.14.1-.3.2-.47.24-.6.14-1.37.22-1.95.36-.33.08-.73.51-.75.16l-1.38.37c-.11-.14-.18-.24-.28-.38l4.56-1.04Z"/>
    <rect class="cls-1" x="42.26" y="64.27" width=".09" height=".19"/>
    <rect class="cls-1" x="40.45" y="64.65" width=".09" height=".19"/>
    <polygon class="cls-1" points="42.07 64.56 42.11 64.46 42.16 64.51 42.11 64.56 42.07 64.56"/>
    <polygon class="cls-1" points="40.22 64.84 40.26 64.89 40.22 64.94 40.22 64.84"/>
    <path class="cls-1" d="M35.23,55.36l-5.98,1.52c.12-.46.17-.51.47-.85h.95s-.1-.19-.1-.19c1.66-.37,2.92-.43,4.65-.47Z"/>
    <path class="cls-1" d="M38.08,60.01c.06.1.13.19.19.28l-4.27.95c-.07-.13-.13-.24-.19-.38l4.27-.85Z"/>
    <path class="cls-1" d="M40.64,62.85c.08.07.34.05.38.28-.42-.03-.79.35-.9.38s.17-.24-.09-.19-.65.28-.68.29c-.26.06-.94.05-1.21.11-.09.02-.1.24-.19.26-.11.03.17-.25-.09-.19-.56.13-1.18.27-1.66.57-.14-.15-.25-.32-.38-.47.41-.42,1.01-.05,1.31-.12.02,0,.07-.25.3-.31.32-.08.66.26.57-.23.56.4,1.7-.44,2.66-.38Z"/>
    <path class="cls-1" d="M58.3,55.36l-17.47,4.08c-.38,0-.76-.01-1.14,0l5.56-1.24-.04-.18,3.27-.76.18.02c.61.16,1.39-.4,1.81-.49.12-.03-.17.24.09.19,1.87-.42,4.87-1.43,6.6-1.61.36-.04.77.02,1.14,0Z"/>
    <polygon class="cls-1" points="49.71 57.54 49.76 57.59 49.71 57.64 49.71 57.54"/>
    <path class="cls-1" d="M57.16,55.36c-1.73.18-4.73,1.19-6.6,1.61-.26.06.02-.21-.09-.19-.42.09-1.2.65-1.81.49l-.18-.02-3.27.76.04.18-5.56,1.24c-.44.02-.89-.03-1.33,0-.05-.24.14-.21.28-.24,2.38-.45,4.75-1.15,7.08-1.66.2-.04.34.21.42.19,1.42-.31,3.33-1.06,4.97-1.24l2.96-.75c.09.26,1.19-.28,1.66-.38h1.42Z"/>
    <path class="cls-1" d="M62.85,55.36l-1.19.28h-.19c-.22.16-1.07.43-1.33.48-.08.01,0-.21-.09-.19-.16.03-.02.27-.09.28-.02,0-.24-.22-.38-.19-.62.11-1.66.61-2.28.74-1.1.24-2.26.34-3.38.62-.17.04-.27-.02-.27.26-.06.01-.42-.07-.52-.08l-7.54,1.88c-.63,0-1.27,0-1.9,0l9.14-2.1c.81-.22,1.87-.6,2.53-.75.3-.07.13.21.24.19l5.55-1.42c.56.01,1.15-.04,1.71,0Z"/>
    <path class="cls-1" d="M65.04,56.88c.07.26.23.6,0,.85,0-.03,0-.06,0-.09,0-.16,0-.32,0-.47l-1.99.38.1.19-2.95.66-.91.1-3.46.7.1.24c-.73,0-1.46,0-2.18,0l11.3-2.56Z"/>
  </g>
  <g>
    <path class="cls-1" d="M46.24,35.93v.52c-.54.14-.21.29-.38.56-.09.14-.3.11-.38.23-.16.25-.17.75-.19.78-.01.02-.18-.11-.19-.1-.24.39-.27.26-.29.29-.01.02.08.25-.06.47-.07.12-.32.09-.42.24-.05.07.3,0,.19.19-.34.6-.76,1.27-1.14,1.85,0,.01-.18-.1-.18-.09-.03.05.01.37-.09.51-.12.18-.66.37-.48.82-.08.07-.26,0-.27.02l-1.76,2.82-.81,1.43c-.05-.15-.06-.25-.09-.38l.76-1.14c-.4-.45,0-.15.22-.48.12-.17.18-.61.3-.76s1.04-.55.33-.52l.67-1.18c.34.06.57-.14.38-.47l.28.05.86-1.94h.38s0-.52,0-.52l.57-.43c-.5-.23.24-.23.28-.38s-.29-.03-.19-.23c.1-.19.35-.33.36-.35.03-.06-.11-.22-.08-.27.02-.03.37.13.29-.38l.28.14-.19-.33c.47.02.26-.66.85-.95.06,0,.13,0,.19,0ZM43.16,40.57v.09l.05-.05-.05-.05Z"/>
    <path class="cls-1" d="M42.92,37.16c.27.64-.28.47-.43.69-.18.28-.22.87-.24.91-.01.02-.26-.01-.33.1-.16.28,0,.9-.62.76.22.68-.15.42-.19.47-.03.04.13.19.08.26-.27.44-1.25,1.24-1.03,1.82l-.76.76c.09-2.26,1.67-4.58,3.51-5.78Z"/>
    <path class="cls-1" d="M43.21,41.9s-.08.07-.09.09c-.03-.02-.09-.06-.09-.09.06,0,.13,0,.19,0Z"/>
    <path class="cls-1" d="M47.1,35.83c-.36.94-1.04,1.59-1.6,2.48-.08.13.37.4-.3.37l-.76,1.61-1.14,1.33c.03-.13.02-.26.09-.38l-.47.28c.08.12.06.25.09.38-.06,0-.13,0-.19,0l.09.28s-.18-.09-.28,0c-.18-.45.36-.64.48-.82.1-.14.05-.46.09-.51,0,0,.18.1.18.09.39-.57.8-1.25,1.14-1.85.11-.19-.23-.12-.19-.19.1-.15.34-.12.42-.24.13-.22.05-.45.06-.47.01-.02.05.1.29-.29,0,0,.18.12.19.1.02-.03.03-.53.19-.78.08-.12.29-.08.38-.23.17-.27-.16-.42.38-.56v-.52c.06,0,.13,0,.19,0,.15-.02.18-.09.19-.09.16-.01.32,0,.47,0ZM42.87,41.71v.09l.05-.05-.05-.05Z"/>
    <path class="cls-1" d="M51.75,47.02c.28.07.24.06.47.19l-1.62,2.75-.19-.09.09.38-.28-.14-.38,1.28c-.42.14-.57.22-1.04.28l2.94-4.65Z"/>
    <path class="cls-1" d="M51.75,47.02l-2.94,4.65-.38.09c-.12,0-.26.01-.38,0l2.85-4.74s.06,0,.09,0c.07-.01.13-.05.19-.09.23-.07.4.05.57.09Z"/>
    <path class="cls-1" d="M42.83,44.46c-.6-.01-1.05,1.3-1.42,1.8,0,0-.18-.1-.19-.1-.13.18.18.52-.38.52l.28.33-.75.4c.14.11.08.35.08.37-.27-.14-.28-.43-.38-.66l.47-.38c-.46-.26.62-1.02.66-1.09.01-.02-.22-.18-.19-.24.02-.03.38-.21.47-.36.44-.71,1.04-1.75,1.42-2.49-.09.62-.15,1.27-.09,1.9Z"/>
    <path class="cls-1" d="M45.1,47.78l-1.71,2.94c-.15-.09-.41-.16-.57-.28l-.09-.41c.41-.6.78-.77.85-1.39l.28.19.57-1.42c.15.12.48.27.66.38ZM43.16,49.58v.09l.05-.05-.05-.05Z"/>
    <path class="cls-1" d="M48.43,35.93c.06,0,.13,0,.19,0l-.1.48-.38.05c.33-.04-.54,1.37-.62,1.47-.05.07-.22.02-.23.04-.01.01.11.31.09.33-.03.03-.58.03-.66.43.8-.29-.24.29-.29.62-.08.01-.21.07-.38.09-.08.01-.16,0-.19.09-.03,0-.07-.01-.09,0l.57-.9v-.52s.38.05.38.05c-.44-.49.26-.49.28-.53.12-.19.7-1.64.78-1.69.22-.03.44,0,.65-.01ZM46.58,38.87v.09l.05-.05-.05-.05Z"/>
    <path class="cls-1" d="M50.8,51l.28-.33c-.78.31.07-.21.16-.38.03-.05-.07-.29.03-.45.09-.15.39-.19.45-.28.05-.08.07-.45.17-.61.22-.33.74-.74.91-1.17.34.64.4.94.08,1.64-.46.75-1.3,1.2-2.07,1.58Z"/>
    <path class="cls-1" d="M42.83,44.46c.01.17.07.31.09.47l-.67,1.42h-.47s0,.71,0,.71c-.14.4-.23-.47-.32-.04-.1.47.37.15-.44.71l.19.23-.38.48c-.18-.27-.27-.3-.38-.66,0-.02.06-.25-.08-.37l.75-.4-.28-.33c.56,0,.25-.34.38-.52,0,0,.18.11.19.1.37-.51.82-1.81,1.42-1.8Z"/>
    <path class="cls-1" d="M50.23,39.91v-.09c.2.05,0,.09,0,.09Z"/>
    <path class="cls-1" d="M51.94,37.35l-1.71,2.46v.09c-.04.09-.09.18-.09.28-.23-.11-.43-.28-.66-.38l.03-.25c.59.04.24-.94.73-.6l.95-1.61-.28-.19.47-.19c.26.15.32.19.57.38Z"/>
    <path class="cls-1" d="M52.89,38.2c.49,1.05.07,1.98-.95,2.42-.25.07-.51.06-.76.04.68-.76.82-1.98,1.71-2.46Z"/>
    <path class="cls-1" d="M49.76,36.21v.57c-.32-.25-.17.21-.3.37-.05.06-.34-.02-.37.01-.09.1.19.26.14.38-.15.4-1.18,1.07-.81,1.28l-.28.52c-.2-.03-.48-.09-.66-.09l-.19-.28.38-.1-.19-.19.29.05,1.04-1.67-.19-.38c.27.16.23-.14.38-.28,0,0-.04.17.05.19.28.06.13-.34-.05-.19.14-.13.3-.11.38-.28.13.03.25.06.38.09Z"/>
    <path class="cls-1" d="M43.68,46.54c.11.15.25.34.38.47-.61.08-.35.72-.38.76-.02.04-.28-.11-.28-.09-.05.09-.26.9-.29.95-.01.03-.18-.1-.19-.1-.1.18.03.51,0,.57-.01.02-.24-.04-.29.06-.06.11.02.3,0,.32-.02.03-.22-.03-.38.48-.22-.19-.37-.37-.57-.57l.57-.62-.19-.09.47-.29-.28-.14.66-.48-.18-.37.28.19v-.57s.67-.47.67-.47Z"/>
    <path class="cls-1" d="M43.3,45.98c.08.16.27.42.38.57l-.66.47v.57s-.29-.19-.29-.19l.18.37-.66.48.28.14-.47.29.19.09-.57.62c-.1-.1-.18-.17-.28-.28-.07-.13.17-.82.19-.85,0,0,.18.12.19.1.04-.06-.11-.26-.09-.28.01-.02.35-.06.38-.1.05-.07-.1-.29-.05-.38.37-.56.66-.84,1.03-1.52.1-.18.02-.25.25-.09Z"/>
    <path class="cls-1" d="M52.32,37.63l-.28.43.19.09-1.61,2.32c-.25-.09-.34-.22-.47-.28,0-.11.06-.19.09-.28,0,0,.2-.05,0-.09l1.71-2.46c.14.11.18.09.38.28Z"/>
    <path class="cls-1" d="M46.62,48.35c-.06.47-.34.57-.51.87-.2.34-.31.79-.48,1.08-.2.35-.84.72-.62,1.18-.25-.07-.51-.19-.76-.28l1.9-2.94c.13.03.37.08.47.09Z"/>
    <path class="cls-1" d="M47.95,48.35v.09l-.74.02c-.22.15-.19.7-.21.73-.02.04-.36.09-.37.1-.01.02.15.3.09.38,0,.01-.18-.1-.18-.09-.22.35-.45.65-.67.99-.05.08.27,0,.19.14-.13.21-.65.49-.66.86-.13-.03-.26-.06-.38-.09-.22-.46.42-.83.62-1.18.17-.3.28-.75.48-1.08.17-.29.45-.4.51-.87.37.04.94.02,1.33,0ZM45.72,50.81v.09l.05-.05-.05-.05Z"/>
    <path class="cls-1" d="M51.37,36.97l-.47.19.28.19-.95,1.61c-.49-.34-.14.64-.73.6l-.03.25c-.19-.08-.38-.22-.57-.28l.19-.28.15.19c-.23-.62.4-.63.43-.67.03-.05-.11-.25-.09-.28.02-.03.45-.18.47-.2.09-.14-.27-.05-.19-.19.06-.09.36-.22.37-.24.01-.02-.01-.5,0-.52.02-.03.35.15.29-.47l.47-.1c.13.07.22.09.38.19Z"/>
    <path class="cls-1" d="M52.89,38.2c-.88.48-1.03,1.7-1.71,2.46-.4-.02-.35-.11-.57-.19l1.61-2.32-.19-.09.28-.43c.18.18.45.31.57.57Z"/>
    <path class="cls-1" d="M50.42,36.5c-.45.55-.92,1.14-1.31,1.73-.05.07.1.22.08.26-.01.02-.23-.05-.3.06-.07.1.02.3,0,.32-.02.03-.62.15-.38.57-.12-.03-.25-.08-.38-.09l.28-.52c-.37-.21.66-.88.81-1.28.04-.12-.24-.28-.14-.38.03-.03.32.05.37-.01.12-.15-.03-.62.3-.37v-.57c.31.09.43.19.67.28Z"/>
    <path class="cls-1" d="M43.02,41.9c-.03-.13-.01-.26-.09-.38l.47-.28c-.07.12-.07.25-.09.38,0,.03,0,.07,0,.09-.03.03-.08.06-.09.09-.01.03.01.07,0,.09-.06,0-.13,0-.19,0Z"/>
    <path class="cls-1" d="M43.02,41.9s.06.07.09.09c-.07.22-.05.31-.19.57-.38.74-.98,1.78-1.42,2.49-.09.15-.46.33-.47.36-.04.06.2.22.19.24-.04.07-1.13.83-.66,1.09l-.47.38c-.1-.22-.21-.43-.28-.66l.81-1.43,1.76-2.82s.19.05.27-.02c.11-.09.26.01.28,0l-.09-.28c.06,0,.13,0,.19,0Z"/>
    <path class="cls-1" d="M48.81,51.66s-.17.08-.38.09l.38-.09Z"/>
    <path class="cls-1" d="M47.95,48.44l-.28.29c.37.62-.05.21-.1.28-.03.04.09.14.06.17-.17.2-.43.19-.44.21-.02.04.14.26.1.32-.31.52-.88,1.44-1.34,1.67l.38.38c-.32-.04-.64-.12-.95-.19,0-.37.53-.64.66-.86.08-.14-.24-.06-.19-.14.22-.34.45-.64.67-.99,0,0,.17.1.18.09.05-.08-.11-.36-.09-.38.01-.02.35-.06.37-.1.02-.03,0-.59.21-.73l.74-.02Z"/>
    <path class="cls-1" d="M39.5,45.22s-.07-.12-.09-.28l.09.28Z"/>
    <path class="cls-1" d="M45.58,36.02c-.88.86-1.36,2.07-2.01,3.11-.02.03-.17-.09-.17-.08-.57.9-.99,2.02-1.55,2.92-.77,1.25-1.88,2.34-2.25,3.72-.04-.17-.06-.3-.09-.47l-.09-.28c0-.06,0-.13,0-.19l.43-.95.33.19.76-1.7c.71.06.15-.15.23-.39.24-.68.78-.88,1-1.23.08-.13-.32.01-.09-.37.02-.03.21.24.33-.48l.14.19c-.24-.79.81-.87.67-1.61l.19.19-.05-.37,1.28-1.91c.32-.11.62-.21.95-.28Z"/>
    <path class="cls-1" d="M43.02,45.31l-.09-.19s.07.1.09.19Z"/>
    <path class="cls-1" d="M45.58,48.06l-.09-.09s.07.09.09.09Z"/>
    <path class="cls-1" d="M46.05,39.43c-.04.09-.12.07-.19.09.03-.09.11-.08.19-.09Z"/>
    <path class="cls-1" d="M43.21,41.8s.07-.07.09-.09c-.01.04-.06.07-.09.09Z"/>
    <path class="cls-1" d="M49.76,47.68c.07.51-.4.65-.57.9,0,.01.13.18.09.23-.02.03-.26,0-.33.1-.21.32-.54.94-.76,1.33-.15.26-.22.31-.25.35-.2.36-.46.73-.47,1.17.19.01.38-.02.57,0-.29.26-1.07.03-1.42,0l.66-.81-.19-.24.28.05c.02-.33-.08-.5.29-.38l-.19-.24.47-.1-.19-.23c.36-.27.48-.73.7-1.04.03-.04.42-.13.44-.15.04-.05-.31-.16,0-.47.26-.2.58-.3.85-.47ZM46.86,51.57v.09l.05-.05-.05-.05Z"/>
    <path class="cls-1" d="M44.06,47.02c.08.09.31.32.38.38l-.57,1.42-.28-.19c-.07.62-.44.79-.85,1.39l.09.41c-.2-.14-.38-.31-.57-.47.15-.51.35-.45.38-.48,0-.01-.07-.21,0-.32.06-.1.28-.04.29-.06.03-.06-.1-.39,0-.57,0,0,.17.12.19.1.03-.05.23-.86.29-.95,0-.01.26.13.28.09.03-.04-.22-.68.38-.76Z"/>
    <path class="cls-1" d="M44.63,36.31l-1.28,1.91.05.37-.19-.19c.15.74-.91.82-.67,1.61l-.14-.19c-.12.72-.31.45-.33.48-.24.39.17.25.09.37-.22.34-.76.54-1,1.23-.09.24.48.45-.23.39l-.76,1.7-.33-.19-.43.95c-.06-.51-.22-1.12,0-1.61,0,.25,0,.51,0,.76l4.27-6.49-.19-.09.57-.71c.18-.08.34-.2.57-.28ZM42.87,38.87v.09l.05-.05-.05-.05Z"/>
    <path class="cls-1" d="M46.05,35.93c-.59.28-.38.97-.85.95l.19.33-.28-.14c.08.51-.27.35-.29.38-.03.05.11.21.08.27-.01.02-.26.16-.36.35-.11.2.23.08.19.23s-.79.15-.28.38l-.57.43v.52s-.38,0-.38,0l-.86,1.94-.28-.05c.19.33-.04.53-.38.47l-.67,1.18c.71-.03-.22.37-.33.52s-.18.59-.3.76c-.22.32-.62.03-.22.48l-.76,1.14c-.04-.14-.06-.24-.09-.38.37-1.38,1.48-2.47,2.25-3.72.56-.9.98-2.02,1.55-2.92,0,0,.16.1.17.08.65-1.04,1.13-2.25,2.01-3.11.16-.03.31-.07.47-.09Z"/>
    <polygon class="cls-1" points="43.16 40.57 43.21 40.62 43.16 40.67 43.16 40.57"/>
    <polygon class="cls-1" points="42.87 38.87 42.92 38.91 42.87 38.96 42.87 38.87"/>
    <path class="cls-1" d="M44.06,36.59l-.57.71.19.09-4.27,6.49c0-.25,0-.51,0-.76,0-.06,0-.13,0-.19l.76-.76c-.22-.58.76-1.38,1.03-1.82.05-.07-.11-.22-.08-.26.04-.06.41.21.19-.47.61.14.45-.49.62-.76.06-.11.32-.08.33-.1.02-.04.06-.64.24-.91.15-.23.7-.05.43-.69.43-.28.69-.37,1.14-.57Z"/>
    <path class="cls-1" d="M52.79,47.78c-.17.43-.69.85-.91,1.17-.1.15-.12.52-.17.61-.06.09-.36.13-.45.28-.1.16,0,.4-.03.45-.09.16-.94.69-.16.38l-.28.33c-.39.19-.54.25-.95.38l.38-1.28.28.14-.09-.38.19.09,1.62-2.75c.41.23.34.15.57.57Z"/>
    <polygon class="cls-1" points="43.16 49.58 43.21 49.63 43.16 49.67 43.16 49.58"/>
    <path class="cls-1" d="M48.43,35.93c-.22,0-.44-.02-.65.01-.08.05-.66,1.5-.78,1.69-.02.03-.72.04-.28.53l-.38-.05v.52s-.57.9-.57.9c-.46.21-.89.51-1.33.76l.76-1.61c.67.03.22-.24.3-.37.55-.89,1.23-1.54,1.6-2.48.4-.02.96-.07,1.33.09Z"/>
    <path class="cls-1" d="M49.38,36.12c-.08.17-.24.15-.38.28.18-.15.33.25.05.19-.09-.02-.06-.18-.05-.19-.15.14-.11.44-.38.28l.19.38-1.04,1.67-.29-.05.19.19-.38.1.19.28c-.24,0-.79.06-1.04.09.04-.33,1.09-.91.29-.62.08-.4.64-.4.66-.43.02-.03-.1-.32-.09-.33.02-.02.18.03.23-.04.08-.11.95-1.52.62-1.47l.38-.05.1-.48c.37.02.49.13.76.19ZM47.72,38.39l-.14.14.04.04.1-.09v-.09Z"/>
    <polygon class="cls-1" points="46.58 38.87 46.62 38.91 46.58 38.96 46.58 38.87"/>
    <path class="cls-1" d="M42.92,45.12l.09.19c.06.18.19.49.28.66-.23-.16-.15-.1-.25.09-.37.68-.67.97-1.03,1.52-.06.09.09.3.05.38-.02.04-.37.09-.38.1-.01.02.13.22.09.28-.01.02-.18-.11-.19-.1-.02.04-.26.72-.19.85-.21-.25-.36-.35-.57-.66l.38-.48-.19-.23c.8-.56.34-.24.44-.71.09-.42.18.45.32.04v-.71s.47,0,.47,0l.67-1.42c.01.06-.01.13,0,.19Z"/>
    <path class="cls-1" d="M50.89,47.02l-2.85,4.74c-.19-.02-.38.01-.57,0,.01-.44.27-.81.47-1.17.03-.05.1-.09.25-.35.22-.39.55-1,.76-1.33.07-.11.31-.07.33-.1.04-.05-.1-.22-.09-.23.16-.24.63-.39.57-.9.41-.26.64-.52,1.14-.66Z"/>
    <path class="cls-1" d="M48.9,48.16c-.31.31.04.42,0,.47-.01.02-.41.11-.44.15-.22.31-.34.77-.7,1.04l.19.23-.47.1.19.24c-.37-.12-.27.05-.29.38l-.28-.05.19.24-.66.81c-.09,0-.19.01-.28,0l-.38-.38c.45-.23,1.03-1.15,1.34-1.67.04-.06-.12-.28-.1-.32.01-.02.27,0,.44-.21.02-.03-.09-.13-.06-.17.04-.07.47.34.1-.28l.28-.29v-.09c.09,0,.19,0,.28,0l.19-.09c.06-.01.13.01.19,0,.07-.02.14-.04.19-.09h.09Z"/>
    <polygon class="cls-1" points="46.86 51.57 46.91 51.62 46.86 51.66 46.86 51.57"/>
    <polygon class="cls-1" points="47.72 38.39 47.72 38.49 47.62 38.58 47.57 38.54 47.72 38.39"/>
    <path class="cls-1" d="M45.48,47.97l.09.09c.14.05.47.17.57.19l-1.9,2.94c-.13-.05-.25-.13-.38-.19v-.55s.47-.06.47-.06c-.18-.83,1.03-1.57,1.05-2.42.03.01.07-.01.09,0ZM45.63,48.25l-.14.14.04.04.1-.09v-.09Z"/>
    <polygon class="cls-1" points="45.63 48.25 45.63 48.35 45.53 48.44 45.49 48.39 45.63 48.25"/>
    <path class="cls-1" d="M45.39,47.97c-.02.85-1.23,1.59-1.05,2.42l-.46.06v.55c-.19-.09-.32-.18-.49-.28l1.71-2.94c.1.05.23.16.28.19Z"/>
    <polygon class="cls-1" points="45.72 50.81 45.77 50.86 45.72 50.91 45.72 50.81"/>
    <rect class="cls-1" x="50.61" y="36.69" width=".19" height=".09"/>
    <polygon class="cls-1" points="49.04 38.58 49.09 38.63 49.04 38.68 49.04 38.58"/>
    <polygon class="cls-1" points="48.85 38.96 48.9 39.01 48.85 39.06 48.85 38.96"/>
    <path class="cls-1" d="M50.99,36.78l-.47.1c.06.62-.27.44-.29.47-.01.02.01.5,0,.52-.01.02-.32.14-.37.24-.08.14.27.05.19.19-.01.02-.45.17-.47.2-.02.03.12.23.09.28-.03.04-.65.05-.43.67l-.15-.19-.19.28c-.12-.04-.25-.06-.38-.09-.24-.43.35-.54.38-.57,0-.01-.07-.22,0-.32.07-.1.29-.04.3-.06.02-.04-.12-.19-.08-.26.39-.59.86-1.18,1.31-1.73.27.11.34.17.57.28ZM50.8,36.69h-.19v.09h.19v-.09ZM49.04,38.58v.09l.05-.05-.05-.05ZM48.85,38.96v.09l.05-.05-.05-.05Z"/>
    <polygon class="cls-1" points="42.87 41.71 42.92 41.76 42.87 41.8 42.87 41.71"/>
  </g>
</svg>